<svg xmlns="http://www.w3.org/2000/svg" xml:space="preserve" width="210mm" height="100mm" style="shape-rendering:geometricPrecision;text-rendering:geometricPrecision;image-rendering:optimizeQuality;fill-rule:evenodd;clip-rule:evenodd" viewBox="0 0 21000 10000"><defs><mask id="id0"><linearGradient id="id1" gradientUnits="userSpaceOnUse" x1="5624" y1="2240" x2="5577" y2="10054"><stop offset="0" style="stop-opacity:1;stop-color:white"/><stop offset="1" style="stop-opacity:0;stop-color:white"/></linearGradient><path style="fill:url(#id1)" d="M1545 2325h6725v6681H1545z"/></mask><mask id="id2"><linearGradient id="id3" gradientUnits="userSpaceOnUse" x1="7500" y1="6121" x2="7500" y2="13621"><stop offset="0" style="stop-opacity:1;stop-color:white"/><stop offset="1" style="stop-opacity:0;stop-color:white"/></linearGradient><path style="fill:url(#id3)" d="M3583 5112h6714v3962H3583z"/></mask><mask id="id4"><linearGradient id="id5" gradientUnits="userSpaceOnUse" x1="7500" y1="6121" x2="7500" y2="13621"><stop offset="0" style="stop-opacity:1;stop-color:white"/><stop offset="1" style="stop-opacity:0;stop-color:white"/></linearGradient><path style="fill:url(#id5)" d="M3558 5087h6764v4012H3558z"/></mask><mask id="id6"><linearGradient id="id7" gradientUnits="userSpaceOnUse" x1="14229" y1="6863" x2="14000" y2="13121"><stop offset="0" style="stop-opacity:1;stop-color:white"/><stop offset="1" style="stop-opacity:0;stop-color:white"/></linearGradient><path style="fill:url(#id7)" d="M10184 5474h9316v3592h-9316z"/></mask><mask id="id8"><linearGradient id="id9" gradientUnits="userSpaceOnUse" x1="14229" y1="6863" x2="14000" y2="13121"><stop offset="0" style="stop-opacity:1;stop-color:white"/><stop offset="1" style="stop-opacity:0;stop-color:white"/></linearGradient><path style="fill:url(#id9)" d="M10159 5449h9366v3642h-9366z"/></mask><linearGradient id="id10" gradientUnits="userSpaceOnUse" x1="4000" y1="7621" x2="22000" y2="8121"><stop offset="0" style="stop-opacity:1;stop-color:#0d5ed6"/><stop offset="1" style="stop-opacity:1;stop-color:#fefefe"/></linearGradient><style>.fil3{fill:none;fill-rule:nonzero}</style></defs><g id="Layer_x0020_1"><path style="mask:url(#id0);fill:#ed721d" d="m1545 9006 4272-6681 2453 3730-2444-1682z"/><path style="fill:#b2541f" d="m1500 9080 4326-4708 2444 1683-2476-1440z"/><path style="mask:url(#id2);fill:url(#id10);fill-rule:nonzero" d="M6219 7724H4884c-58 0-87 26-87 78 0 123 66 239 200 347 134 110 277 164 431 164 91 0 192-17 303-52s203-79 274-130c64-45 115-68 153-68 49 0 98 30 145 91 48 60 72 123 72 187 0 137-85 269-256 395-302 226-649 339-1043 339-398 0-731-115-1001-346-130-114-239-251-324-412-112-214-167-439-167-676 0-319 96-604 289-859 167-220 379-384 637-492 193-81 402-122 627-122 360 0 666 102 917 307 127 103 230 224 307 364 89 159 134 315 134 467 0 123-26 224-78 303-50 79-117 117-199 117zm-1261-531h287c121 0 181-56 181-168 0-103-29-186-88-250-58-64-135-97-230-97-106 0-189 42-250 125-57 78-85 156-85 236 0 57 14 97 42 119 27 23 75 35 144 35zm5043-1848v2595c0 147 7 243 18 284 13 42 48 82 104 122 68 48 114 89 138 125s36 80 36 131c0 151-152 267-458 346-274 70-549 106-823 106-61 0-100-10-118-27-18-18-30-61-36-130-9-96-44-145-102-145-32 0-82 28-150 85-194 157-408 236-645 236-294 0-559-109-793-327-138-131-250-281-336-452-113-221-170-446-170-673 0-267 74-525 221-773 137-229 322-406 557-529 198-102 392-153 583-153 220 0 417 49 591 147 29 16 51 23 69 23 60 0 90-81 90-244 0-70-17-124-49-161-33-37-92-69-177-95-119-38-179-104-179-199 0-139 138-246 412-324 485-135 810-202 975-202 163 0 244 78 244 233zM8458 6775c-123 0-220 65-292 196-97 175-145 404-145 688 0 258 47 452 140 583 66 94 156 142 270 142 123 0 212-72 269-214 56-143 83-374 83-692 0-292-33-486-99-583-51-76-126-115-225-119z"/><path id="1" class="fil3" style="mask:url(#id4);stroke:#476eb3;stroke-width:50" d="M6219 7724H4884c-58 0-87 26-87 78 0 123 66 239 200 347 134 110 277 164 431 164 91 0 192-17 303-52s203-79 274-130c64-45 115-68 153-68 49 0 98 30 145 91 48 60 72 123 72 187 0 137-85 269-256 395-302 226-649 339-1043 339-398 0-731-115-1001-346-130-114-239-251-324-412-112-214-167-439-167-676 0-319 96-604 289-859 167-220 379-384 637-492 193-81 402-122 627-122 360 0 666 102 917 307 127 103 230 224 307 364 89 159 134 315 134 467 0 123-26 224-78 303-50 79-117 117-199 117zm-1261-531h287c121 0 181-56 181-168 0-103-29-186-88-250-58-64-135-97-230-97-106 0-189 42-250 125-57 78-85 156-85 236 0 57 14 97 42 119 27 23 75 35 144 35zm5043-1848v2595c0 147 7 243 18 284 13 42 48 82 104 122 68 48 114 89 138 125s36 80 36 131c0 151-152 267-458 346-274 70-549 106-823 106-61 0-100-10-118-27-18-18-30-61-36-130-9-96-44-145-102-145-32 0-82 28-150 85-194 157-408 236-645 236-294 0-559-109-793-327-138-131-250-281-336-452-113-221-170-446-170-673 0-267 74-525 221-773 137-229 322-406 557-529 198-102 392-153 583-153 220 0 417 49 591 147 29 16 51 23 69 23 60 0 90-81 90-244 0-70-17-124-49-161-33-37-92-69-177-95-119-38-179-104-179-199 0-139 138-246 412-324 485-135 810-202 975-202 163 0 244 78 244 233zM8458 6775c-123 0-220 65-292 196-97 175-145 404-145 688 0 258 47 452 140 583 66 94 156 142 270 142 123 0 212-72 269-214 56-143 83-374 83-692 0-292-33-486-99-583-51-76-126-115-225-119z"/><path style="mask:url(#id6);fill:#cdcdce;fill-rule:nonzero" d="M12020 6904v960c0 114 27 207 83 278 56 72 127 108 214 108 74 0 172-34 293-102 28-17 57-26 85-26 46 0 87 28 125 82 38 55 56 115 56 179 0 117-64 230-193 339-269 229-595 343-978 343-303 0-546-85-731-257-183-172-276-398-276-678V6817c0-44-5-71-16-81-11-11-37-16-81-16h-293c-55 0-90-9-106-27-15-17-22-60-22-126v-125c2-57 23-99 65-125l1302-819c32-17 72-25 119-25h231c47 0 79 11 95 33 16 21 24 65 24 129v383c0 57 9 94 26 112 18 16 57 25 115 25h526c70 0 115 13 137 39 20 25 31 80 31 163v168c0 91-14 154-40 189s-75 52-146 52h-514c-52 0-89 10-108 28-19 19-28 55-28 109zm2563-583v1541c0 330 109 495 327 495 54 0 109-16 162-48 52-31 90-69 111-114 42-91 62-294 62-608 0-311-10-523-31-637-8-47-20-81-40-103-18-22-54-48-108-76-108-57-162-129-162-216 0-117 93-199 278-244 352-87 700-130 1043-130 191 0 287 101 287 304 0 20-1 63-3 128-4 91-7 202-9 333v1253c0 64 55 123 165 176 93 46 140 112 140 199 0 171-202 303-605 396-237 54-467 81-688 82-91-1-153-11-186-32-33-20-52-61-58-122-10-117-46-176-108-176-23 0-44 5-63 16-18 11-77 49-174 114-191 131-397 197-616 197-364 0-621-106-770-316-127-176-191-472-191-890 0-155 1-288 3-398v-131c0-163-15-282-44-359s-83-137-161-180c-74-38-120-68-141-91-19-22-29-54-29-94 0-144 109-240 327-287 371-81 742-121 1114-121 112 0 168 47 168 142zm3524-162c95 0 249 20 464 62 44 8 80 12 108 12 32 0 95-16 187-51 44-17 81-25 112-25 87 0 175 56 264 168 72 89 131 186 177 293 46 106 68 198 68 276 0 76-26 139-80 189-53 49-119 75-199 75-66 0-125-16-178-48-52-33-136-104-251-213-121-117-222-177-302-177-53 0-99 19-138 58s-58 85-58 138c0 93 89 180 267 262 320 144 566 301 736 471 145 145 216 320 216 529 0 264-115 483-347 660-199 153-442 230-731 230-74 0-208-13-404-37-183-20-286-31-309-31-24 0-53 3-85 9-54 7-94 11-119 11-89 0-159-22-211-68-78-70-149-180-215-331-67-151-100-280-100-388 0-175 68-262 205-262 53 0 102 17 147 52 45 36 138 129 280 280 78 83 142 141 193 172s106 48 165 48c62 0 113-16 150-50 38-33 57-77 57-132 0-85-74-163-219-233-306-149-526-305-661-464-136-159-204-342-204-551 0-225 70-420 208-583 197-233 467-349 807-349z"/><path id="1" class="fil3" style="mask:url(#id8);stroke:#d7d7d8;stroke-width:50" d="M12020 6904v960c0 114 27 207 83 278 56 72 127 108 214 108 74 0 172-34 293-102 28-17 57-26 85-26 46 0 87 28 125 82 38 55 56 115 56 179 0 117-64 230-193 339-269 229-595 343-978 343-303 0-546-85-731-257-183-172-276-398-276-678V6817c0-44-5-71-16-81-11-11-37-16-81-16h-293c-55 0-90-9-106-27-15-17-22-60-22-126v-125c2-57 23-99 65-125l1302-819c32-17 72-25 119-25h231c47 0 79 11 95 33 16 21 24 65 24 129v383c0 57 9 94 26 112 18 16 57 25 115 25h526c70 0 115 13 137 39 20 25 31 80 31 163v168c0 91-14 154-40 189s-75 52-146 52h-514c-52 0-89 10-108 28-19 19-28 55-28 109zm2563-583v1541c0 330 109 495 327 495 54 0 109-16 162-48 52-31 90-69 111-114 42-91 62-294 62-608 0-311-10-523-31-637-8-47-20-81-40-103-18-22-54-48-108-76-108-57-162-129-162-216 0-117 93-199 278-244 352-87 700-130 1043-130 191 0 287 101 287 304 0 20-1 63-3 128-4 91-7 202-9 333v1253c0 64 55 123 165 176 93 46 140 112 140 199 0 171-202 303-605 396-237 54-467 81-688 82-91-1-153-11-186-32-33-20-52-61-58-122-10-117-46-176-108-176-23 0-44 5-63 16-18 11-77 49-174 114-191 131-397 197-616 197-364 0-621-106-770-316-127-176-191-472-191-890 0-155 1-288 3-398v-131c0-163-15-282-44-359s-83-137-161-180c-74-38-120-68-141-91-19-22-29-54-29-94 0-144 109-240 327-287 371-81 742-121 1114-121 112 0 168 47 168 142zm3524-162c95 0 249 20 464 62 44 8 80 12 108 12 32 0 95-16 187-51 44-17 81-25 112-25 87 0 175 56 264 168 72 89 131 186 177 293 46 106 68 198 68 276 0 76-26 139-80 189-53 49-119 75-199 75-66 0-125-16-178-48-52-33-136-104-251-213-121-117-222-177-302-177-53 0-99 19-138 58s-58 85-58 138c0 93 89 180 267 262 320 144 566 301 736 471 145 145 216 320 216 529 0 264-115 483-347 660-199 153-442 230-731 230-74 0-208-13-404-37-183-20-286-31-309-31-24 0-53 3-85 9-54 7-94 11-119 11-89 0-159-22-211-68-78-70-149-180-215-331-67-151-100-280-100-388 0-175 68-262 205-262 53 0 102 17 147 52 45 36 138 129 280 280 78 83 142 141 193 172s106 48 165 48c62 0 113-16 150-50 38-33 57-77 57-132 0-85-74-163-219-233-306-149-526-305-661-464-136-159-204-342-204-551 0-225 70-420 208-583 197-233 467-349 807-349z"/></g></svg>