<svg width="35" height="33" viewBox="0 0 35 33" fill="none" xmlns="http://www.w3.org/2000/svg">
<g clip-path="url(#clip0_32_36286)">
<path d="M13.1294 18.0323L5.21772 16.0963C4.92952 16.0279 4.62491 16.1689 4.54178 16.4185C4.4592 16.6667 4.62709 16.9261 4.91803 16.9973L12.8297 18.9333C12.8794 18.945 12.9297 18.9511 12.9795 18.9511C13.2174 18.9511 13.4362 18.8171 13.5051 18.6111C13.5882 18.3629 13.4197 18.1034 13.1294 18.0323Z" fill="#737373" stroke="#737373" stroke-width="0.008"/>
<path d="M13.1294 21.3101L5.21772 19.3746C4.92952 19.3063 4.62491 19.4472 4.54178 19.6968C4.4592 19.9455 4.62709 20.2045 4.91803 20.2756L12.8297 22.2111C12.8794 22.2228 12.9297 22.2289 12.9795 22.2289C13.2174 22.2289 13.4362 22.095 13.5051 21.8889C13.5882 21.6403 13.4197 21.3813 13.1294 21.3101Z" fill="#737373" stroke="#737373" stroke-width="0.008"/>
<path d="M13.1294 14.7539L5.21772 12.818C4.92952 12.7496 4.62491 12.8906 4.54178 13.1402C4.4592 13.3884 4.62709 13.6478 4.91803 13.719L12.8297 15.6549C12.8794 15.6666 12.9297 15.6727 12.9795 15.6727C13.2174 15.6727 13.4362 15.5388 13.5051 15.3328C13.5882 15.0846 13.4197 14.8251 13.1294 14.7539Z" fill="#737373" stroke="#737373" stroke-width="0.008"/>
<path d="M13.1294 11.4761L5.21772 9.54016C4.92952 9.47179 4.62491 9.61275 4.54178 9.86235C4.4592 10.1106 4.62709 10.37 4.91803 10.4412L12.8297 12.3771C12.8794 12.3888 12.9297 12.3949 12.9795 12.3949C13.2174 12.3949 13.4362 12.261 13.5051 12.0549C13.5882 11.8067 13.4197 11.5473 13.1294 11.4761Z" fill="#737373" stroke="#737373" stroke-width="0.008"/>
<path d="M21.8548 18.9331C21.9051 18.9331 21.9554 18.927 22.0052 18.9153L29.9168 16.9794C30.2072 16.9082 30.3756 16.6488 30.293 16.4006C30.2099 16.1514 29.9059 16.0109 29.6171 16.0784L21.7049 18.0143C21.4145 18.0855 21.2461 18.3449 21.3287 18.5931C21.3981 18.7992 21.6169 18.9331 21.8548 18.9331Z" fill="#737373" stroke="#737373" stroke-width="0.008"/>
<path d="M29.7823 19.3748L21.8706 21.3102C21.5802 21.3814 21.4118 21.6404 21.4944 21.889C21.5638 22.0951 21.7826 22.229 22.0205 22.229C22.0708 22.229 22.1211 22.2229 22.1709 22.2112L30.0825 20.2758C30.3729 20.2046 30.5413 19.9456 30.4588 19.697C30.3751 19.4478 30.071 19.3073 29.7823 19.3748Z" fill="#737373" stroke="#737373" stroke-width="0.008"/>
<path d="M29.7823 12.818L21.8706 14.7539C21.5802 14.8251 21.4118 15.0845 21.4944 15.3327C21.5638 15.5388 21.7826 15.6727 22.0205 15.6727C22.0708 15.6727 22.1211 15.6666 22.1709 15.6549L30.0825 13.719C30.3729 13.6478 30.5413 13.3883 30.4588 13.1402C30.3751 12.891 30.071 12.7496 29.7823 12.818Z" fill="#737373" stroke="#737373" stroke-width="0.008"/>
<path d="M29.7823 9.5398L21.8706 11.4757C21.5802 11.5469 21.4118 11.8064 21.4944 12.0546C21.5638 12.2606 21.7826 12.3945 22.0205 12.3945C22.0708 12.3945 22.1211 12.3885 22.1709 12.3767L30.0825 10.4408C30.3729 10.3696 30.5413 10.1102 30.4588 9.86199C30.3751 9.61286 30.071 9.47237 29.7823 9.5398Z" fill="#737373" stroke="#737373" stroke-width="0.008"/>
<path d="M34.5729 3.2227C34.3793 3.0958 34.1441 3.0293 33.9052 3.0293C33.8111 3.0293 33.7165 3.0396 33.6241 3.0602L17.5 6.74242L1.37594 3.0602C1.28297 3.03913 1.18836 3.0293 1.0943 3.0293C0.855312 3.0293 0.620703 3.0958 0.427109 3.2227C0.158047 3.40019 0 3.67461 0 3.96542V27.3798C0 27.8041 0.333047 28.1754 0.811562 28.285L14.9609 31.5158C15.3612 32.384 16.3445 32.9998 17.5 32.9998C18.6555 32.9998 19.6388 32.384 20.0391 31.5158L34.1884 28.285C34.667 28.1754 35 27.8041 35 27.3798V3.96542C35 3.67461 34.842 3.40019 34.5729 3.2227ZM17.5 28.3169C17.5946 28.3169 17.6898 28.3066 17.7822 28.2855L33.9062 24.6033V25.5183L17.5 29.2371L1.09375 25.5183V24.6033L17.2178 28.285C17.3102 28.3066 17.4054 28.3169 17.5 28.3169ZM1.09266 3.96589C1.09266 3.96589 1.0932 3.96589 1.0943 3.96589L16.9531 7.58676V27.2552L1.09375 23.6339L1.09266 3.96589ZM19.1291 30.7544C19.0859 31.2896 18.6998 31.7429 18.1513 31.9466L17.7816 32.0314C17.6892 32.0525 17.5941 32.0628 17.4995 32.0628C17.4048 32.0628 17.3097 32.0525 17.2173 32.0314L16.8476 31.9466C16.2991 31.7429 15.913 31.2896 15.8698 30.7544L1.09375 27.3798V26.4872L17.36 30.1746C17.4059 30.1849 17.453 30.1901 17.5 30.1901C17.547 30.1901 17.5941 30.1849 17.64 30.1746L33.9062 26.4872V27.3798L19.1291 30.7544ZM18.0469 27.2552V7.58676L33.9062 3.96542V23.6339L18.0469 27.2552Z" fill="#737373" stroke="#737373" stroke-width="0.008"/>
</g>
<path fill-rule="evenodd" clip-rule="evenodd" d="M19.9737 1.21558V6.0779H14.9854V1.21558H19.9737ZM17.085 2.43116H16.5992L15.6769 4.86232H16.1151L16.2893 4.38705H17.3934L17.5638 4.86232H18.0284L17.085 2.43116ZM18.8064 2.43116H18.3699V4.86232H18.8064V2.43116ZM16.8384 2.83905L17.2732 4.05193H16.4105L16.8384 2.83905ZM20.3894 4.86232H21.2208V5.67271H20.3894V4.86232ZM15.4011 6.48309H16.2325V7.29348H15.4011V6.48309ZM17.0639 6.48309H17.8953V7.29348H17.0639V6.48309ZM15.4011 0H16.2325V0.810387H15.4011V0ZM18.7267 6.48309H19.558V7.29348H18.7267V6.48309ZM17.0639 0H17.8953V0.810387H17.0639V0ZM18.7267 0H19.558V0.810387H18.7267V0ZM20.3894 3.24155H21.2208V4.05193H20.3894V3.24155ZM13.7383 4.86232H14.5697V5.67271H13.7383V4.86232ZM20.3894 1.62077H21.2208V2.43116H20.3894V1.62077ZM13.7383 3.24155H14.5697V4.05193H13.7383V3.24155ZM13.7383 1.62077H14.5697V2.43116H13.7383V1.62077Z" fill="#737373"/>
<defs>
<clipPath id="clip0_32_36286">
<rect width="35" height="29.971" fill="white" transform="translate(0 3.02881)"/>
</clipPath>
</defs>
</svg>
