<svg width="24" height="24" viewBox="0 0 24 24" fill="none" xmlns="http://www.w3.org/2000/svg">
<path d="M0.465313 8.26629C0.768524 8.79316 1.20684 9.23146 1.73371 9.53469C2.53676 10 3.46292 10 5 10C6.53708 10 7.46324 10 8.26629 9.53469C8.79316 9.23148 9.23146 8.79316 9.53469 8.26629C10 7.46324 10 6.53708 10 5C10 3.46292 10 2.53676 9.53469 1.73371C9.23148 1.20684 8.79316 0.768539 8.26629 0.465312C7.46324 -2.29043e-07 6.53708 0 5 0C3.46292 0 2.53676 -2.29043e-07 1.73371 0.465312C1.20684 0.768524 0.76854 1.20684 0.465313 1.73371C5.03894e-07 2.53676 0 3.46292 0 5C0 6.53708 5.03894e-07 7.46324 0.465313 8.26629ZM2.46321 2.88652C2.56378 2.70939 2.70938 2.5683 2.88652 2.46321C3.13269 2.32061 3.65955 2.3101 5 2.3101C6.34045 2.3101 6.86732 2.32511 7.11348 2.46321C7.29061 2.56378 7.4317 2.70938 7.53679 2.88652C7.67939 3.13269 7.6899 3.65955 7.6899 5C7.6899 6.34045 7.67489 6.86732 7.53679 7.11348C7.43622 7.29061 7.29062 7.4317 7.11348 7.53679C6.86731 7.67939 6.34045 7.6899 5 7.6899C3.65955 7.6899 3.13268 7.67489 2.88652 7.53679C2.70939 7.43622 2.5683 7.29062 2.46321 7.11348C2.32061 6.86731 2.3101 6.34045 2.3101 5C2.3101 3.65955 2.32511 3.13268 2.46321 2.88652Z" fill="#737373"/>
<path d="M0.465313 22.2663C0.768524 22.7932 1.20684 23.2315 1.73371 23.5347C2.53676 24 3.46292 24 5 24C6.53708 24 7.46324 24 8.26629 23.5347C8.79316 23.2315 9.23146 22.7932 9.53469 22.2663C10 21.4632 10 20.5371 10 19C10 17.4629 10 16.5368 9.53469 15.7337C9.23148 15.2068 8.79316 14.7685 8.26629 14.4653C7.46324 14 6.53708 14 5 14C3.46292 14 2.53676 14 1.73371 14.4653C1.20684 14.7685 0.76854 15.2068 0.465313 15.7337C5.03894e-07 16.5368 0 17.4629 0 19C0 20.5371 5.03894e-07 21.4632 0.465313 22.2663ZM2.46321 16.8865C2.56378 16.7094 2.70938 16.5683 2.88652 16.4632C3.13269 16.3206 3.65955 16.3101 5 16.3101C6.34045 16.3101 6.86732 16.3251 7.11348 16.4632C7.29061 16.5638 7.4317 16.7094 7.53679 16.8865C7.67939 17.1327 7.6899 17.6596 7.6899 19C7.6899 20.3404 7.67489 20.8673 7.53679 21.1135C7.43622 21.2906 7.29062 21.4317 7.11348 21.5368C6.86731 21.6794 6.34045 21.6899 5 21.6899C3.65955 21.6899 3.13268 21.6749 2.88652 21.5368C2.70939 21.4362 2.5683 21.2906 2.46321 21.1135C2.32061 20.8673 2.3101 20.3404 2.3101 19C2.3101 17.6596 2.32511 17.1327 2.46321 16.8865Z" fill="#737373"/>
<path d="M23.5347 1.73371C23.2315 1.20684 22.7932 0.768539 22.2663 0.465312C21.4632 -2.29043e-07 20.5371 0 19 0C17.4629 0 16.5368 -2.29043e-07 15.7337 0.465312C15.2068 0.768524 14.7685 1.20684 14.4653 1.73371C14 2.53676 14 3.46292 14 5C14 6.53708 14 7.46324 14.4653 8.26629C14.7685 8.79316 15.2068 9.23146 15.7337 9.53469C16.5368 10 17.4629 10 19 10C20.5371 10 21.4632 10 22.2663 9.53469C22.7932 9.23148 23.2315 8.79316 23.5347 8.26629C24 7.46324 24 6.53708 24 5C24 3.46292 24 2.53676 23.5347 1.73371ZM21.5368 7.11348C21.4362 7.29061 21.2906 7.4317 21.1135 7.53679C20.8673 7.67939 20.3404 7.6899 19 7.6899C17.6596 7.6899 17.1327 7.67489 16.8865 7.53679C16.7094 7.43622 16.5683 7.29062 16.4632 7.11348C16.3206 6.86731 16.3101 6.34045 16.3101 5C16.3101 3.65955 16.3251 3.13268 16.4632 2.88652C16.5638 2.70939 16.7094 2.5683 16.8865 2.46321C17.1327 2.32061 17.6596 2.3101 19 2.3101C20.3404 2.3101 20.8673 2.32511 21.1135 2.46321C21.2906 2.56378 21.4317 2.70938 21.5368 2.88652C21.6794 3.13269 21.6899 3.65955 21.6899 5C21.6899 6.34045 21.6749 6.86732 21.5368 7.11348Z" fill="#737373"/>
<path d="M23.5347 15.7337C23.2315 15.2068 22.7932 14.7685 22.2663 14.4653C21.4632 14 20.5371 14 19 14C17.4629 14 16.5368 14 15.7337 14.4653C15.2068 14.7685 14.7685 15.2068 14.4653 15.7337C14 16.5368 14 17.4629 14 19C14 20.5371 14 21.4632 14.4653 22.2663C14.7685 22.7932 15.2068 23.2315 15.7337 23.5347C16.5368 24 17.4629 24 19 24C20.5371 24 21.4632 24 22.2663 23.5347C22.7932 23.2315 23.2315 22.7932 23.5347 22.2663C24 21.4632 24 20.5371 24 19C24 17.4629 24 16.5368 23.5347 15.7337ZM21.5368 21.1135C21.4362 21.2906 21.2906 21.4317 21.1135 21.5368C20.8673 21.6794 20.3404 21.6899 19 21.6899C17.6596 21.6899 17.1327 21.6749 16.8865 21.5368C16.7094 21.4362 16.5683 21.2906 16.4632 21.1135C16.3206 20.8673 16.3101 20.3404 16.3101 19C16.3101 17.6596 16.3251 17.1327 16.4632 16.8865C16.5638 16.7094 16.7094 16.5683 16.8865 16.4632C17.1327 16.3206 17.6596 16.3101 19 16.3101C20.3404 16.3101 20.8673 16.3251 21.1135 16.4632C21.2906 16.5638 21.4317 16.7094 21.5368 16.8865C21.6794 17.1327 21.6899 17.6596 21.6899 19C21.6899 20.3404 21.6749 20.8673 21.5368 21.1135Z" fill="#737373"/>
</svg>
