<svg width="50" height="54" viewBox="0 0 50 54" fill="none" xmlns="http://www.w3.org/2000/svg">
<path d="M24.5621 1.00046C27.1532 0.991622 29.7402 1.18422 32.2934 1.57604C35.3136 2.02775 38.2543 2.82813 41.0409 3.95684C42.6171 4.46584 43.9897 5.37575 44.9875 6.57312C45.4979 7.43009 45.8132 8.36802 45.9153 9.33328C46.8578 13.4278 47.8444 21.4728 48.1242 23.4088V45.4902H44.1629V49.0091C44.1934 49.42 44.1287 49.8321 43.9727 50.2199C43.8166 50.6077 43.5727 50.9629 43.2558 51.2635C42.939 51.5642 42.5561 51.8038 42.1308 51.9677C41.7054 52.1315 41.2468 52.216 40.7832 52.216C40.3196 52.216 39.8609 52.1315 39.4356 51.9677C39.0103 51.8038 38.6273 51.5642 38.3105 51.2635C37.9937 50.9629 37.7497 50.6077 37.5937 50.2199C37.4377 49.8321 37.3729 49.42 37.4035 49.0091V45.4902H11.7208V49.0091C11.7513 49.42 11.6866 49.8321 11.5306 50.2199C11.3745 50.6077 11.1306 50.9629 10.8137 51.2635C10.4969 51.5642 10.114 51.8038 9.68866 51.9677C9.26333 52.1315 8.80467 52.216 8.34107 52.216C7.87748 52.216 7.41881 52.1315 6.99349 51.9677C6.56816 51.8038 6.18523 51.5642 5.8684 51.2635C5.55158 50.9629 5.3076 50.6077 5.15158 50.2199C4.99557 49.8321 4.93083 49.42 4.96138 49.0091V45.4902H1V23.4088C1.23562 21.4728 2.22229 13.4801 3.16477 9.33328C3.26686 8.36802 3.58212 7.43009 4.09253 6.57312C5.0904 5.37575 6.46301 4.46584 8.03918 3.95684C10.8258 2.82813 13.7665 2.02775 16.7866 1.57604C19.3544 1.18193 21.9563 0.989325 24.5621 1.00046ZM9.04057 9.96119C8.55039 9.97579 8.08184 10.1441 7.71796 10.4362C7.35407 10.7283 7.11833 11.1254 7.05252 11.5571L5.18228 23.6181C5.10554 24.0942 5.24118 24.5781 5.56028 24.9667C5.87939 25.3552 6.35672 25.6177 6.89053 25.6981H41.8803C42.4248 25.6983 42.948 25.5098 43.3385 25.1726C43.729 24.8355 43.9561 24.3764 43.9714 23.8928C43.9786 23.8101 43.9786 23.727 43.9714 23.6443L42.1012 11.5833C42.0334 11.1406 41.787 10.7348 41.4079 10.4413C41.0287 10.1477 40.5424 9.98645 40.0395 9.98735H9.11421L9.04057 9.96119ZM8.36316 32.8013C7.65998 32.7987 6.97179 32.9817 6.3859 33.3271C5.80001 33.6725 5.34284 34.1648 5.0724 34.7414C4.80195 35.3179 4.73043 35.9529 4.8669 36.5657C5.00337 37.1784 5.34169 37.7414 5.83891 38.1831C6.33614 38.6247 6.96987 38.9253 7.65969 39.0465C8.3495 39.1677 9.06431 39.1042 9.71341 38.864C10.3625 38.6237 10.9166 38.2176 11.3055 37.6972C11.6943 37.1767 11.9004 36.5654 11.8975 35.9408C11.8975 35.1081 11.5251 34.3096 10.8623 33.7208C10.1995 33.132 9.30052 32.8013 8.36316 32.8013ZM40.7611 32.8013C40.0585 32.8013 39.3718 32.9865 38.7878 33.3335C38.2039 33.6805 37.749 34.1736 37.4808 34.7505C37.2126 35.3273 37.1432 35.9618 37.2813 36.5737C37.4195 37.1856 37.759 37.7473 38.2568 38.1877C38.7546 38.6281 39.3883 38.9273 40.0778 39.0475C40.7672 39.1676 41.4812 39.1033 42.1295 38.8627C42.7777 38.6221 43.331 38.216 43.7192 37.6958C44.1074 37.1757 44.313 36.5649 44.3101 35.9408C44.3121 35.5269 44.2215 35.1168 44.0437 34.7342C43.8658 34.3517 43.6043 34.0043 43.2741 33.7123C42.944 33.4202 42.5518 33.1893 42.1204 33.0329C41.689 32.8765 41.227 32.7978 40.7611 32.8013Z" stroke="#2360BF" stroke-width="2" stroke-linecap="round" stroke-linejoin="round"/>
</svg>
