<svg width="38" height="55" viewBox="0 0 38 55" fill="none" xmlns="http://www.w3.org/2000/svg">
<path d="M35.2676 6.48394H27.6761C27.6524 4.49528 26.0293 2.88431 24.0351 2.88431H23.3393C22.6258 1.19137 20.9492 0 19 0C17.0508 0 15.3743 1.19137 14.6608 2.88431H13.9649C11.9708 2.88431 10.3471 4.49528 10.324 6.48394H2.73251C1.22599 6.48394 0 7.70992 0 9.21644V51.4829C0 52.9894 1.22599 54.2154 2.73251 54.2154H35.2676C36.7741 54.2154 38.0001 52.9894 38.0001 51.4829V9.21644C38.0001 7.70931 36.7741 6.48394 35.2676 6.48394ZM36.1784 51.4829C36.1784 51.985 35.7697 52.3937 35.2676 52.3937H2.73251C2.23033 52.3937 1.82167 51.985 1.82167 51.4829V9.21644C1.82167 8.71427 2.23033 8.30561 2.73251 8.30561H10.3252C10.3623 10.2827 11.9793 11.8803 13.9649 11.8803H24.0351C26.0214 11.8803 27.6378 10.2827 27.6748 8.30561H35.2676C35.7697 8.30561 36.1784 8.71427 36.1784 9.21644V51.4829Z" fill="#2360BF"/>
<path d="M6.90963 22.1614H8.80721C10.3137 22.1614 11.5397 20.9354 11.5397 19.4289V17.5313C11.5397 16.0248 10.3137 14.7988 8.80721 14.7988H6.90963C5.40311 14.7988 4.17712 16.0248 4.17712 17.5313V19.4289C4.17712 20.9354 5.40311 22.1614 6.90963 22.1614ZM5.9988 17.5313C5.9988 17.0292 6.40746 16.6205 6.90963 16.6205H8.80721C9.30938 16.6205 9.71804 17.0292 9.71804 17.5313V19.4289C9.71804 19.9311 9.30938 20.3397 8.80721 20.3397H6.90963C6.40746 20.3397 5.9988 19.9311 5.9988 19.4289V17.5313Z" fill="#2360BF"/>
<path d="M8.80721 42.3281H6.90963C5.40311 42.3281 4.17712 43.5541 4.17712 45.0606V46.9582C4.17712 48.4647 5.40311 49.6907 6.90963 49.6907H8.80721C10.3137 49.6907 11.5397 48.4647 11.5397 46.9582V45.0606C11.5397 43.5541 10.3143 42.3281 8.80721 42.3281ZM9.71804 46.9582C9.71804 47.4604 9.30938 47.869 8.80721 47.869H6.90963C6.40746 47.869 5.9988 47.4604 5.9988 46.9582V45.0606C5.9988 44.5585 6.40746 44.1498 6.90963 44.1498H8.80721C9.30938 44.1498 9.71804 44.5585 9.71804 45.0606V46.9582Z" fill="#2360BF"/>
<path d="M32.7919 16.9531H14.2473V19.8933H32.7919V16.9531Z" fill="#2360BF"/>
<path d="M32.7919 30.7749H14.2473V33.7151H32.7919V30.7749Z" fill="#2360BF"/>
<path d="M32.7919 44.54H14.2473V47.4802H32.7919V44.54Z" fill="#2360BF"/>
<path d="M15.3202 24.3205L16.0404 23.924C16.0671 23.9094 16.0793 23.8766 16.0671 23.8475C16.0544 23.8165 16.0191 23.8013 15.9882 23.8141L15.2273 24.125L14.8472 24.281L14.4798 24.4766C14.2357 24.6089 13.9856 24.7359 13.7433 24.8749L13.0444 25.3297C12.8051 25.4748 12.5895 25.6503 12.3685 25.8198C12.1523 25.9946 11.9149 26.1489 11.7164 26.3438L11.0958 26.9067C10.8954 27.101 10.7047 27.305 10.5092 27.5042C10.1552 27.8728 9.82303 28.2638 9.50242 28.6628C9.27896 28.6039 9.04943 28.5626 8.80775 28.5626H6.91018C5.66841 28.5626 4.62945 29.3999 4.29851 30.5361C4.23961 30.5178 4.18314 30.4929 4.12363 30.4759C3.8777 30.4225 3.64089 30.3581 3.39132 30.3369C3.14418 30.3114 2.89825 30.3017 2.64747 30.3363C2.625 30.3393 2.60496 30.3545 2.59707 30.3776C2.58675 30.4104 2.60435 30.4444 2.63654 30.4553L2.64322 30.4571C2.86303 30.5282 3.07738 30.6235 3.28323 30.7249C3.49272 30.8117 3.68461 30.952 3.88317 31.0498C3.98518 31.1117 4.08416 31.1797 4.18192 31.2471C4.18192 31.2629 4.17707 31.2781 4.17707 31.2939V33.1915C4.17707 34.698 5.40305 35.924 6.90957 35.924H8.80715C10.3137 35.924 11.5397 34.698 11.5397 33.1915V31.2939C11.5397 30.3448 11.0527 29.5099 10.3167 29.0198C10.5596 28.6725 10.8049 28.3264 11.0733 27.9991L11.5907 27.3827L12.1432 26.7974C12.3224 26.5958 12.5288 26.4252 12.7219 26.2369C12.9187 26.0529 13.1099 25.8617 13.3255 25.7007L13.957 25.1943L14.6237 24.7425C14.8436 24.5889 15.0755 24.4462 15.3202 24.3205ZM6.90957 30.3849H8.24607C7.99408 30.7674 7.74329 31.1506 7.51133 31.5477C7.38017 31.7675 7.25933 31.9952 7.14275 32.2248L7.02555 32.113C6.93204 32.0317 6.84946 31.9406 6.74441 31.8707L6.14022 31.4305C6.09528 31.3965 6.0461 31.368 5.99934 31.337V31.2957C5.99874 30.7935 6.4074 30.3849 6.90957 30.3849ZM5.99874 33.1933V32.767C6.06796 32.8326 6.12808 32.9103 6.19244 32.982L6.4159 33.2321C6.56528 33.3979 6.71526 33.5631 6.87132 33.7216L7.2484 34.1041H6.90957C6.4074 34.1041 5.99874 33.6961 5.99874 33.1933ZM9.71798 33.1933C9.71798 33.6955 9.30932 34.1041 8.80715 34.1041H7.69653L7.93821 33.5272L8.23697 32.815C8.33837 32.5709 8.44706 32.3292 8.55515 32.0863C8.7695 31.5987 9.013 31.1232 9.27228 30.6563C9.29111 30.6217 9.31296 30.5889 9.3324 30.5543C9.56496 30.7194 9.71798 30.9897 9.71798 31.2963V33.1933Z" fill="#2360BF"/>
</svg>
