<svg width="51" height="44" viewBox="0 0 51 44" fill="none" xmlns="http://www.w3.org/2000/svg">
<path fill-rule="evenodd" clip-rule="evenodd" d="M28.6562 22.8667C28.2028 23.3167 27.9243 23.939 27.9243 24.6283C27.9243 25.3155 28.2028 25.9399 28.6562 26.3899C29.1075 26.8399 29.7336 27.1197 30.4228 27.1197C31.1119 27.1197 31.738 26.8399 32.1894 26.3899C32.6427 25.9399 32.9212 25.3155 32.9212 24.6283C32.9212 23.9411 32.6427 23.3167 32.1894 22.8667C31.738 22.4146 31.1119 22.1369 30.4228 22.1369C29.7336 22.1369 29.1075 22.4146 28.6562 22.8667ZM25.5336 24.6283C25.5336 23.2822 26.0804 22.0619 26.9648 21.1821C27.8491 20.3002 29.0729 19.7549 30.4228 19.7549C31.7726 19.7549 32.9964 20.3002 33.8787 21.1821C34.763 22.0639 35.3099 23.2843 35.3099 24.6283C35.3099 25.9744 34.761 27.1947 33.8787 28.0765C32.9944 28.9583 31.7706 29.5037 30.4228 29.5037C29.0729 29.5037 27.8491 28.9563 26.9648 28.0765C26.0804 27.1947 25.5336 25.9743 25.5336 24.6283ZM40.6141 35.3075V16.5984C40.6141 15.9395 40.0794 15.4064 39.4187 15.4064H10.1893L13.94 2.66532L48.329 12.7285L41.5998 35.595L40.6159 35.3072L40.6141 35.3075ZM43.5516 37.4057L50.9516 12.2562C51.1366 11.6278 50.7748 10.9649 50.1445 10.7804L13.4683 0.048244C12.8361 -0.136232 12.1733 0.224608 11.9883 0.853051L7.70491 15.4063H1.19537C0.534689 15.4063 0 15.9394 0 16.5983V42.808C0 43.4668 0.534637 44 1.19537 44H39.4183C40.079 44 40.6137 43.4669 40.6137 42.808V37.7846L42.0713 38.2103C42.7035 38.3948 43.3666 38.0341 43.5516 37.4057ZM20.8437 31.9991L38.2235 37.0854V41.6161H2.39085V36.6941L11.7222 29.9336L15.9323 35.0766C15.9445 35.0928 15.9567 35.107 15.9689 35.1232L19.3802 39.2891C19.7949 39.7979 20.5451 39.875 21.0574 39.4614C21.5676 39.0479 21.6449 38.2978 21.2302 37.7889L18.4715 34.4177L20.8419 31.9952L20.8437 31.9991Z" fill="#2360BF"/>
</svg>
