<svg width="46" height="46" viewBox="0 0 46 46" fill="none" xmlns="http://www.w3.org/2000/svg">
<path d="M45.6409 12.9235V6.8405C45.6389 5.00162 44.1468 3.5096 42.3079 3.5075H36.1303V2.52443C36.1303 1.14527 35.0118 0.0288086 33.6327 0.0288086C32.2555 0.0288086 31.137 1.14527 31.137 2.52443V3.5116H15.4267V2.52443C15.4102 1.15757 14.2979 0.0575476 12.931 0.0575476C11.5642 0.0575476 10.4498 1.15762 10.4354 2.52443V3.5075H4.25362C2.41474 3.50955 0.92272 5.00162 0.920618 6.8405C0.916514 9.46952 0.924723 39.7455 0.920618 41.2807C0.922671 43.1216 2.41474 44.6116 4.25362 44.6157H9.64732C10.0947 44.6075 10.4539 44.2422 10.4539 43.7948C10.4539 43.3453 10.0948 42.98 9.64732 42.9739H4.25362C3.31983 42.9718 2.56458 42.2145 2.56248 41.2807V39.8379C3.07351 40.1478 3.6584 40.312 4.25362 40.314H9.2962C9.74361 40.3079 10.1028 39.9425 10.1028 39.4931C10.1028 39.0457 9.74363 38.6804 9.2962 38.6722H4.25362C3.31983 38.6722 2.56458 37.9149 2.56248 36.981V13.7486H43.9988V36.981C43.9988 37.9148 43.2415 38.6722 42.3077 38.6722H34.8166C34.3671 38.6804 34.0079 39.0457 34.0079 39.4931C34.0079 39.9425 34.3671 40.3079 34.8166 40.314H42.3077C42.9049 40.312 43.4898 40.1478 43.9988 39.8379V41.2807C43.9988 42.2144 43.2415 42.9718 42.3077 42.9739H31.857C31.4076 42.98 31.0484 43.3453 31.0484 43.7948C31.0484 44.2422 31.4075 44.6075 31.857 44.6157H42.3077C44.1465 44.6137 45.6386 43.1216 45.6407 41.2807V36.981C45.6427 36.9728 45.6389 12.9298 45.6409 12.9235ZM32.7793 4.34067C32.7772 4.32015 32.7813 2.54487 32.7793 2.52438C32.7875 2.0585 33.1671 1.68291 33.6351 1.68291C34.1009 1.68291 34.4806 2.05848 34.4888 2.52438V7.81301C34.4888 8.28299 34.1051 8.66677 33.633 8.66677C33.163 8.66677 32.7793 8.28299 32.7793 7.81301V4.34067ZM12.0776 2.52438C12.0838 2.0585 12.4635 1.68291 12.9314 1.68291C13.3973 1.68291 13.777 2.05848 13.7852 2.52438C13.7872 3.66754 13.7852 6.63313 13.7852 7.81301C13.777 8.27888 13.3973 8.65448 12.9314 8.65448C12.4635 8.65448 12.0838 8.27891 12.0776 7.81301V2.52438ZM43.9996 12.1065H2.56327V6.8405C2.56532 5.90672 3.32057 5.15146 4.25441 5.14936H10.4341L10.4362 7.03542H9.52491C9.30736 7.03542 9.09803 7.12367 8.94409 7.2776C8.79016 7.43152 8.70396 7.63881 8.70396 7.85637C8.75117 8.90511 9.8902 8.65266 10.5983 8.6773C10.9656 9.64603 11.8954 10.2884 12.9318 10.2884C13.9682 10.2884 14.8958 9.64597 15.2632 8.6773H16.3407C16.7881 8.66909 17.1473 8.30378 17.1473 7.85637C17.1473 7.40897 16.7881 7.04364 16.3407 7.03544H15.4274V5.15348H31.1377V7.03544H30.2286C29.7811 7.04571 29.4241 7.40897 29.4241 7.85637C29.4241 8.30378 29.7812 8.66911 30.2286 8.6773H31.3019C31.6714 9.64603 32.599 10.2863 33.6354 10.2863C34.6698 10.2863 35.5975 9.64597 35.9669 8.6773H37.0443C37.4917 8.67115 37.853 8.30583 37.853 7.85637C37.853 7.40897 37.4918 7.04364 37.0443 7.03544H36.131V5.14938H42.3086C43.2424 5.15143 43.9998 5.90669 43.9998 6.84052L43.9996 12.1065Z" fill="#2360BF"/>
<path d="M28.5451 42.2467C29.0171 42.1338 33.8095 37.0933 34.2813 36.6749V36.6769C35.2213 35.7308 35.2172 34.1998 34.2711 33.2598C33.3249 32.3178 31.796 32.3219 30.854 33.268L26.1562 38.0007H21.5139L22.3779 31.4022C25.2716 31.7306 32.0651 31.9728 32.4197 29.1919C32.7502 26.5998 32.1037 23.979 30.6075 21.8364C29.1114 19.6938 26.8723 18.1833 24.3254 17.6004L24.4609 16.5722V16.5701C24.4896 16.3546 24.4301 16.1371 24.2987 15.9647C24.1653 15.7903 23.9703 15.6774 23.7548 15.6487C22.7287 15.5543 22.8087 16.6769 22.6999 17.3685C20.0483 17.2064 17.4318 18.054 15.377 19.7389C13.3226 21.4259 11.9825 23.8251 11.6233 26.4582C11.2867 29.0215 16.865 30.5793 20.7499 31.1888L19.8592 37.9984L13.9979 38.0005C12.9061 38.0108 11.9559 38.7516 11.6808 39.8086C11.4058 40.8655 11.8758 41.9758 12.824 42.5156L11.6685 44.8101C11.4654 45.2144 11.6275 45.709 12.0318 45.9122C12.4382 46.1154 12.9307 45.9532 13.136 45.5489L14.5028 42.8337H19.2212L18.9277 45.0687H18.9297C18.8805 45.514 19.1945 45.9163 19.6378 45.9738C20.0811 46.0313 20.4895 45.7254 20.5572 45.2821L20.8774 42.8337H26.4886C26.6528 42.8275 26.8149 42.8111 26.9771 42.7844L28.3685 45.5489C28.5779 45.943 29.0643 46.099 29.4645 45.8978C29.8647 45.6967 30.0288 45.2144 29.8359 44.8101L28.5451 42.2467ZM22.5913 29.7749L23.0736 26.0889C28.2352 26.8893 30.7023 28.4634 30.7906 28.9786C30.573 29.4527 27.7876 30.3372 22.5913 29.7749ZM30.7964 26.799C29.5465 26.0889 28.2043 25.5512 26.8087 25.2043C26.6343 23.23 26.072 21.311 25.1525 19.5563C26.6631 20.1371 27.9847 21.1181 28.9802 22.3946C29.9735 23.6712 30.6014 25.1941 30.7964 26.799ZM23.1414 19.3431C24.186 20.9973 24.8612 22.8567 25.1178 24.7962C24.2722 24.6176 23.3876 24.4637 22.4805 24.3447C21.6843 24.24 20.7689 24.1538 19.8166 24.1025H19.8146C20.5678 22.2944 21.7027 20.671 23.1414 19.3431ZM21.1383 19.027C19.7961 20.4862 18.7555 22.1958 18.0763 24.0573C16.6396 24.0285 15.2051 24.1968 13.8136 24.5622C14.419 23.0619 15.4185 21.7545 16.7094 20.7797C18.0003 19.8049 19.5313 19.1994 21.1383 19.027ZM13.249 26.682C13.3927 26.3167 15.0961 25.6928 18.2854 25.6928C19.3423 25.6969 20.3972 25.7585 21.4459 25.8775L20.9636 29.5615C15.7713 28.757 13.3089 27.1685 13.249 26.682ZM28.1692 40.4921C27.7238 40.9395 27.1184 41.1898 26.4883 41.1919H13.9981C13.5753 41.1837 13.2387 40.8389 13.2387 40.4161C13.2387 39.9954 13.5753 39.6506 13.9981 39.6423H26.1563C26.5872 39.6444 27.0018 39.472 27.3056 39.1641L32.0198 34.4253H32.0177C32.3215 34.1339 32.8038 34.138 33.1034 34.4336C33.401 34.7311 33.4071 35.2134 33.1178 35.5192L28.1692 40.4921Z" fill="#2360BF"/>
</svg>
