<svg width="45" height="42" viewBox="0 0 45 42" fill="none" xmlns="http://www.w3.org/2000/svg">
<path d="M14.1663 14.6203C13.8898 14.3964 13.4845 14.4387 13.2609 14.7148C12.987 15.0524 12.6235 15.2382 12.2373 15.2382C11.851 15.2382 11.4871 15.0524 11.2134 14.7148C10.9894 14.4387 10.5838 14.3964 10.3078 14.6203C10.0317 14.8444 9.9892 15.2497 10.2133 15.5258C10.729 16.1616 11.4663 16.5259 12.237 16.5259C13.0078 16.5259 13.7451 16.1614 14.2608 15.5258C14.4847 15.2497 14.4424 14.8444 14.1663 14.6203Z" fill="#2360BF"/>
<path d="M9.18915 10.6665C8.83364 10.6665 8.54517 10.9545 8.54517 11.3103V12.0719C8.54517 12.4274 8.83364 12.7157 9.18915 12.7157C9.54465 12.7157 9.83313 12.4274 9.83313 12.0719V11.3105C9.83313 10.9545 9.54487 10.6665 9.18915 10.6665Z" fill="#2360BF"/>
<path d="M15.2842 10.6665C14.9287 10.6665 14.6403 10.9545 14.6403 11.3103V12.0719C14.6403 12.4274 14.9285 12.7157 15.2842 12.7157C15.64 12.7157 15.9282 12.4274 15.9282 12.0719V11.3105C15.9282 10.9545 15.6397 10.6665 15.2842 10.6665Z" fill="#2360BF"/>
<path d="M5.95547 28.5463L4.43168 25.4987C4.27285 25.1808 3.88593 25.0516 3.56803 25.2107C3.25013 25.3695 3.12094 25.7564 3.28 26.0743L4.73587 28.9863V41.0243C4.73587 41.3798 5.0239 41.6683 5.37962 41.6683C5.73513 41.6683 6.0236 41.3798 6.0236 41.0243V28.8341C6.0236 28.7341 5.99993 28.6356 5.95547 28.5463Z" fill="#2360BF"/>
<path d="M20.9058 25.2107C20.5877 25.0516 20.201 25.1808 20.042 25.4987L18.518 28.5463C18.4733 28.6356 18.4498 28.7343 18.4498 28.8341V41.0243C18.4498 41.3798 18.7381 41.6683 19.0938 41.6683C19.4493 41.6683 19.7378 41.3798 19.7378 41.0243V28.9863L21.1939 26.0743C21.3525 25.7564 21.2237 25.3697 20.9058 25.2107Z" fill="#2360BF"/>
<path d="M34.7371 18.4297C34.4613 18.2053 34.0558 18.2478 33.8315 18.5239C33.5578 18.8617 33.1941 19.0475 32.8076 19.0475C32.4214 19.0475 32.0579 18.8617 31.784 18.5239C31.5604 18.2476 31.1549 18.2056 30.8786 18.4297C30.6023 18.6535 30.5605 19.059 30.7841 19.3351C31.2996 19.9709 32.0371 20.3353 32.8076 20.3353C33.5784 20.3353 34.3159 19.9707 34.8314 19.3351C35.0559 19.059 35.0137 18.6538 34.7371 18.4297Z" fill="#2360BF"/>
<path d="M29.7602 14.4761C29.4049 14.4761 29.1162 14.7643 29.1162 15.1201V15.8819C29.1162 16.2375 29.4049 16.5259 29.7602 16.5259C30.1157 16.5259 30.4039 16.2377 30.4039 15.8819V15.1201C30.4042 14.7643 30.1159 14.4761 29.7602 14.4761Z" fill="#2360BF"/>
<path d="M35.8556 14.4761C35.5 14.4761 35.2118 14.7643 35.2118 15.1201V15.8819C35.2118 16.2375 35.5 16.5259 35.8556 16.5259C36.2111 16.5259 36.4993 16.2377 36.4993 15.8819V15.1201C36.4993 14.7643 36.2113 14.4761 35.8556 14.4761Z" fill="#2360BF"/>
<path d="M42.277 27.6617L37.0528 25.5718C36.7165 25.4373 36.4995 25.1165 36.4995 24.7548V23.1724C36.857 22.9707 37.199 22.7399 37.52 22.4802C38.8285 21.4228 39.7528 19.9417 40.1231 18.3104C40.2466 17.7666 40.3092 17.2061 40.3092 16.6437C40.3092 12.8935 37.5926 12.3542 34.9658 11.8326C33.2856 11.4989 31.5483 11.1541 30.1626 10.0457C30.011 9.9245 29.8126 9.87849 29.6232 9.91964C29.4336 9.96101 29.2726 10.0862 29.1852 10.2597C29.1817 10.2667 28.8211 10.9771 28.2109 11.6684C27.6942 12.254 26.8827 12.9522 25.9511 12.9522C25.6381 12.9522 25.3403 13.0194 25.0713 13.1395V12.0721C25.0713 7.80607 28.5419 4.33508 32.8082 4.33508C37.0745 4.33508 40.5454 7.80607 40.5454 12.0721V13.5961C40.5454 13.9519 40.8337 14.2401 41.1892 14.2401C41.5449 14.2401 41.833 13.9521 41.833 13.5961V12.0721C41.833 8.69716 39.9703 5.74892 37.2187 4.20102C37.2468 4.03267 37.2618 3.86211 37.2618 3.6911C37.2618 1.65563 35.2642 0 32.8082 0C30.3526 0 28.3552 1.65563 28.3552 3.6911C28.3552 3.86211 28.3698 4.03267 28.3979 4.20102C25.6463 5.74892 23.7836 8.69694 23.7836 12.0721V15.1199C23.7836 16.0984 24.4351 16.9275 25.3275 17.1961C25.3552 17.572 25.4107 17.9447 25.4932 18.3102C25.864 19.9415 26.788 21.4226 28.0963 22.48C28.4178 22.7397 28.7596 22.9705 29.1168 23.1722V24.7546C29.1168 25.1165 28.8998 25.4371 28.5638 25.5716L23.3396 27.6615C22.2211 28.1086 21.4979 29.1764 21.4979 30.3812V34.1677C21.4979 34.3382 21.5661 34.5021 21.6868 34.6232C21.8072 34.7435 21.9709 34.8116 22.1417 34.8116H22.1421H22.2596V41.0242C22.2596 41.3797 22.5481 41.6682 22.9036 41.6682C23.2591 41.6682 23.5473 41.3797 23.5473 41.0242V34.8112H25.3072V41.0242C25.3072 41.3797 25.5959 41.6682 25.9509 41.6682C26.3066 41.6682 26.5949 41.3797 26.5949 41.0242V32.6432C26.5949 32.2879 26.3066 31.9997 25.9509 31.9997C25.5959 31.9997 25.3072 32.2879 25.3072 32.6432V33.5235H22.9036H22.7854V30.3814C22.7854 29.706 23.1907 29.1076 23.8177 28.857L27.8806 27.2319C28.4198 28.1458 29.9502 30.4106 32.5204 31.6955C32.6108 31.7411 32.7095 31.7636 32.8082 31.7636C32.9071 31.7636 33.0057 31.7411 33.0962 31.6955C35.6659 30.4106 37.197 28.1458 37.7361 27.2319L41.7989 28.857C42.4258 29.1078 42.8311 29.7065 42.8311 30.3817V33.5237H42.7132H40.3096V32.6437C40.3096 32.2879 40.0211 31.9997 39.6656 31.9997C39.3101 31.9997 39.0219 32.2879 39.0219 32.6437V41.0245C39.0219 41.3797 39.3101 41.6684 39.6656 41.6684C40.0211 41.6684 40.3096 41.3797 40.3096 41.0245V34.8114H42.0692V41.0245C42.0692 41.3797 42.3577 41.6684 42.7132 41.6684C43.0687 41.6684 43.357 41.3797 43.357 41.0245V34.8114H43.4751C43.8304 34.8114 44.1189 34.5227 44.1189 34.1674V30.3817C44.1184 29.1767 43.3955 28.109 42.277 27.6617ZM32.8077 1.28774C34.522 1.28774 35.9212 2.32771 35.9712 3.62009C34.9866 3.25043 33.9205 3.04735 32.8077 3.04735C31.6954 3.04735 30.6293 3.25043 29.6447 3.62009C29.6947 2.32771 31.0941 1.28774 32.8077 1.28774ZM28.9054 21.4788C27.8209 20.6023 27.0553 19.3758 26.7487 18.025C26.6464 17.5746 26.5947 17.1098 26.5947 16.6435C26.5947 16.288 26.3064 15.9997 25.9507 15.9997C25.4658 15.9997 25.0709 15.6048 25.0709 15.1197C25.0709 14.6346 25.4656 14.2399 25.9507 14.2399C27.9034 14.2399 29.3195 12.4717 29.959 11.4828C31.4605 12.4493 33.1778 12.7904 34.7144 13.0957C37.5446 13.6576 39.0212 14.0704 39.0212 16.6437C39.0212 17.1103 38.9697 17.5748 38.8675 18.0252C38.5608 19.376 37.7948 20.6023 36.7105 21.479C35.5951 22.3805 34.2452 22.8572 32.8077 22.8572C31.3704 22.8572 30.021 22.3805 28.9054 21.4788ZM32.8077 30.3923C30.8654 29.3189 29.6159 27.583 29.0934 26.7447C29.8909 26.4016 30.4041 25.6273 30.4041 24.7546V23.7463C31.1742 24.0069 31.9865 24.1449 32.8077 24.1449C33.6296 24.1449 34.4417 24.0069 35.2118 23.7463V24.7546C35.2118 25.6273 35.725 26.4016 36.5227 26.7445C35.9995 27.5834 34.7501 29.3198 32.8077 30.3923Z" fill="#2360BF"/>
<path d="M22.2211 22.3955L18.0405 21.1414L17.3436 20.0961C17.2425 19.9441 17.0812 19.8421 16.9005 19.816C16.8299 19.8056 16.7585 19.8079 16.6901 19.8207V18.8641C18.398 17.5994 19.5534 15.6292 19.7176 13.3869C20.6098 13.1181 21.2615 12.2889 21.2615 11.3107C21.2615 10.6771 20.9768 10.0769 20.4996 9.66877V5.21489C20.4996 3.9944 19.8813 2.85223 18.8678 2.16776C18.5292 0.894847 17.3876 0 16.0464 0H9.95101C6.65545 0 3.97401 2.68144 3.97401 5.977V9.66877C3.49683 10.0771 3.21212 10.6771 3.21212 11.3107C3.21212 12.2889 3.86384 13.1181 4.75581 13.3869C4.91996 15.6292 6.07541 17.5994 7.78369 18.8641V19.8205C7.71467 19.8079 7.64388 19.8056 7.57309 19.816C7.39235 19.8421 7.23108 19.9439 7.12976 20.0961L6.43312 21.1414L2.25223 22.3951C1.00365 22.77 0.164551 23.8976 0.164551 25.2015V41.0245C0.164551 41.3797 0.452804 41.6684 0.808531 41.6684C1.16404 41.6684 1.45229 41.3797 1.45229 41.0245V25.2015C1.45229 24.4708 1.92239 23.839 2.62234 23.629L5.49846 22.7663C5.50399 22.8999 5.55155 23.0315 5.63871 23.1412L8.22481 26.374C8.50355 26.722 8.90994 26.904 9.32141 26.904C9.61542 26.904 9.91141 26.8113 10.1663 26.6206L11.5927 25.5504V41.0245C11.5927 41.38 11.8812 41.6684 12.2367 41.6684C12.5924 41.6684 12.8804 41.38 12.8804 41.0245V25.5504L14.3073 26.6206C14.562 26.8113 14.8584 26.904 15.1522 26.904C15.5639 26.904 15.97 26.7222 16.2486 26.374L18.8349 23.1412C18.9227 23.0315 18.9698 22.8997 18.9758 22.7663L21.8517 23.629C22.5516 23.839 23.0217 24.471 23.0217 25.2015C23.0217 25.557 23.3102 25.8455 23.6657 25.8455C24.0212 25.8455 24.3095 25.557 24.3095 25.2015C24.309 23.8976 23.4702 22.77 22.2211 22.3955ZM6.02364 12.8342C6.02364 12.4787 5.73539 12.1903 5.37966 12.1903C4.89452 12.1903 4.49964 11.7954 4.49964 11.3105C4.49964 10.9981 4.66489 10.7154 4.94164 10.5543C4.9558 10.5459 4.96863 10.5364 4.98234 10.5267C5.10468 10.4647 5.24073 10.4302 5.37966 10.4302H6.27871C6.94636 10.4302 7.52641 9.95481 7.65715 9.30043L8.12548 6.95812C8.1319 6.92561 8.14893 6.90061 8.17614 6.88424C8.1976 6.87118 8.23277 6.8588 8.28011 6.87251C9.42362 7.20612 10.7921 7.38243 12.2365 7.38243C14.0905 7.38243 18.6517 6.39224 19.9056 5.86904C20.2335 5.73189 20.3885 5.35492 20.2514 5.02663C20.1144 4.69878 19.7377 4.5437 19.4094 4.68063C18.325 5.13304 13.8994 6.09469 12.236 6.09469C10.9308 6.09469 9.65391 5.93231 8.64049 5.63654C8.25821 5.52504 7.84563 5.57858 7.50849 5.78299C7.17488 5.98541 6.93928 6.32145 6.86252 6.70593L6.39419 9.0478C6.38313 9.10266 6.33446 9.1427 6.27849 9.1427H5.37944C5.34006 9.1427 5.30068 9.14425 5.26131 9.14646V5.97722C5.26131 3.39135 7.36514 1.28774 9.95057 1.28774H16.0459C16.8534 1.28774 17.5323 1.86956 17.6595 2.67149C17.6903 2.8655 17.808 3.03496 17.9792 3.13141C18.7393 3.56036 19.2116 4.35876 19.2116 5.21489V9.99795C19.2116 10.2274 19.3333 10.4391 19.5317 10.5545C19.8083 10.7156 19.9737 10.9983 19.9737 11.3107C19.9737 11.7956 19.5786 12.1905 19.0937 12.1905C18.7382 12.1905 18.4497 12.4787 18.4497 12.8345C18.4497 16.2603 15.6623 19.0475 12.2365 19.0475C8.81083 19.0473 6.02364 16.2601 6.02364 12.8342ZM9.39353 25.59C9.34221 25.6285 9.27075 25.6196 9.23049 25.5694L6.93862 22.7043L7.8036 21.4064L11.1989 24.2359L9.39353 25.59ZM12.2367 23.4244L9.07099 20.7865V19.6329C10.0337 20.0826 11.1058 20.3353 12.2367 20.3353C13.3676 20.3353 14.4396 20.0828 15.4024 19.6329V20.7865L12.2367 23.4244ZM15.2429 25.5696C15.2026 25.6198 15.1312 25.6287 15.0798 25.5902L13.2744 24.2363L16.6698 21.4066L17.5348 22.7046L15.2429 25.5696Z" fill="#2360BF"/>
<path d="M9.95851 30.4761H9.95077C9.59526 30.4761 9.31055 30.7641 9.31055 31.1198C9.31055 31.4751 9.60278 31.7636 9.95851 31.7636C10.314 31.7636 10.6023 31.4751 10.6023 31.1198C10.6023 30.7641 10.3145 30.4761 9.95851 30.4761Z" fill="#2360BF"/>
<path d="M9.95851 36.5713H9.95077C9.59526 36.5713 9.31055 36.8595 9.31055 37.215C9.31055 37.5703 9.60278 37.8588 9.95851 37.8588C10.314 37.8588 10.6023 37.5703 10.6023 37.215C10.6023 36.8595 10.3145 36.5713 9.95851 36.5713Z" fill="#2360BF"/>
<path d="M9.95851 33.5234H9.95077C9.59526 33.5234 9.31055 33.8115 9.31055 34.1672C9.31055 34.5225 9.60278 34.8112 9.95851 34.8112C10.314 34.8112 10.6023 34.5225 10.6023 34.1672C10.6023 33.8115 10.3145 33.5234 9.95851 33.5234Z" fill="#2360BF"/>
</svg>
