<svg width="46" height="47" viewBox="0 0 46 47" fill="none" xmlns="http://www.w3.org/2000/svg">
<path d="M34.1671 0.374512H0V46.3745H46V9.49915L34.1671 0.374512ZM34.8166 3.29392L42.2139 8.9982H34.8166V3.29392ZM2.21773 44.6644V2.08463H32.599V10.7083H43.7824V44.6645L2.21773 44.6644Z" fill="#2360BF"/>
<path d="M8.17053 13.7792H16.3288V7.48828H8.17053V13.7792ZM10.3883 9.1984H14.1111V12.0691H10.3883V9.1984Z" fill="#2360BF"/>
<path d="M8.17053 22.2734H16.3288V15.9824H8.17053V22.2734ZM10.3883 17.6925H14.1111V20.5633H10.3883V17.6925Z" fill="#2360BF"/>
<path d="M8.17053 30.7667H16.3288V24.4756H8.17053V30.7667ZM10.3883 26.1857H14.1111V29.0565H10.3883V26.1857Z" fill="#2360BF"/>
<path d="M8.17053 39.2607H16.3288V32.9697H8.17053V39.2607ZM10.3883 34.6798H14.1111V37.5506H10.3883V34.6798Z" fill="#2360BF"/>
<path d="M36.422 37.5503H19.4656V39.2604H36.422V37.5503Z" fill="#2360BF"/>
<path d="M36.422 29.0566H19.4656V30.7668H36.422V29.0566Z" fill="#2360BF"/>
<path d="M36.422 20.563H19.4656V22.2731H36.422V20.563Z" fill="#2360BF"/>
<path d="M36.422 12.0693H19.4656V13.7795H36.422V12.0693Z" fill="#2360BF"/>
</svg>
