<svg width="42" height="53" viewBox="0 0 42 53" fill="none" xmlns="http://www.w3.org/2000/svg">
<circle cx="10" cy="43" r="9" fill="#558CE1" fill-opacity="0.21"/>
<path fill-rule="evenodd" clip-rule="evenodd" d="M31.2509 1.57595H38.8005C39.6485 1.57781 40.4612 1.91762 41.0608 2.52101C41.6605 3.1244 41.9981 3.94224 42 4.79556V47.5287C41.998 48.3819 41.6603 49.1997 41.0607 49.8031C40.4611 50.4064 39.6484 50.7463 38.8005 50.7483H16.1751C15.0813 51.6485 13.8087 52.3027 12.4429 52.6671C11.0771 53.0315 9.64954 53.0976 8.25621 52.861C6.86289 52.6244 5.53601 52.0904 4.36468 51.2951C3.19335 50.4998 2.20469 49.4615 1.46509 48.2499C0.725495 47.0383 0.252079 45.6815 0.0766389 44.2706C-0.0988013 42.8597 0.027795 41.4273 0.447926 40.0697C0.868057 38.7121 1.572 37.4607 2.51247 36.3995C3.45295 35.3382 4.60819 34.4918 5.90062 33.917V4.79556C5.90247 3.94224 6.24016 3.1244 6.83978 2.52101C7.4394 1.91762 8.25213 1.57781 9.10012 1.57595H16.6497C16.7818 1.12161 17.0566 0.722534 17.4329 0.438449C17.8092 0.154363 18.2668 0.000540593 18.7373 0H29.1663C29.6362 0.000985792 30.0933 0.155029 30.469 0.439095C30.8448 0.723162 31.1191 1.12199 31.2509 1.57595ZM17.7318 49.1417H38.8022C39.2269 49.14 39.6337 48.9695 39.9341 48.6674C40.2344 48.3653 40.404 47.956 40.4058 47.5287V4.79556C40.404 4.36817 40.2344 3.95882 39.9341 3.6566C39.6338 3.35439 39.227 3.18379 38.8022 3.18193H31.3375V4.66836H38.1304C38.342 4.66851 38.5449 4.75321 38.6945 4.90384C38.8441 5.05447 38.9281 5.2587 38.9281 5.47164V46.8526C38.9281 47.0655 38.844 47.2696 38.6944 47.4202C38.5448 47.5707 38.342 47.6553 38.1304 47.6553H18.6799C18.4077 48.1782 18.0896 48.6757 17.7295 49.1417H17.7318ZM19.3471 46.0493H37.3321V6.27493H31.2456C31.1118 6.72622 30.8371 7.12212 30.4621 7.40396C30.0871 7.6858 29.6319 7.83859 29.1639 7.83968H18.7373C18.2692 7.83868 17.814 7.68593 17.439 7.40408C17.064 7.12222 16.7893 6.72627 16.6556 6.27493H10.5691V33.0931C12.7586 33.2395 14.8371 34.1163 16.4759 35.5848H34.7635C34.9752 35.5848 35.1783 35.6694 35.328 35.8201C35.4777 35.9707 35.5618 36.1751 35.5618 36.3881C35.5618 36.6011 35.4777 36.8055 35.328 36.9561C35.1783 37.1068 34.9752 37.1914 34.7635 37.1914H17.9232C18.6725 38.2289 19.2145 39.403 19.5192 40.6483H34.7635C34.9714 40.654 35.1689 40.7411 35.3139 40.8911C35.459 41.041 35.5402 41.242 35.5402 41.4513C35.5402 41.6606 35.459 41.8616 35.3139 42.0116C35.1689 42.1616 34.9714 42.2486 34.7635 42.2543H19.7755C19.8755 43.5354 19.7292 44.8239 19.3448 46.0493H19.3471ZM8.97488 33.1137V5.47164C8.97488 5.2586 9.05899 5.05428 9.20869 4.90363C9.35839 4.75299 9.56144 4.66836 9.77315 4.66836H16.566V3.18016H9.1013C8.67657 3.18202 8.26978 3.35262 7.96945 3.65484C7.66912 3.95705 7.49958 4.36641 7.49774 4.7938V33.3664C7.98308 33.2448 8.47687 33.1603 8.97488 33.1137ZM15.776 37.1254C14.614 35.9553 13.1332 35.1583 11.521 34.8352C9.90876 34.512 8.23752 34.6773 6.71866 35.3101C5.1998 35.9429 3.90156 37.0147 2.98815 38.3901C2.07474 39.7654 1.5872 41.3825 1.5872 43.0367C1.5872 44.6909 2.07474 46.308 2.98815 47.6833C3.90156 49.0587 5.1998 50.1305 6.71866 50.7633C8.23752 51.3961 9.90876 51.5614 11.521 51.2382C13.1332 50.9151 14.614 50.1181 15.776 48.948C16.5475 48.1717 17.1595 47.2502 17.577 46.2359C17.9946 45.2216 18.2095 44.1345 18.2095 43.0367C18.2095 41.9388 17.9946 40.8517 17.577 39.8375C17.1595 38.8232 16.5475 37.9017 15.776 37.1254ZM4.74769 44.0075L7.00555 46.5935C7.07432 46.6726 7.15792 46.7373 7.25155 46.7839C7.34519 46.8306 7.44704 46.8582 7.55128 46.8652C7.65551 46.8722 7.7601 46.8584 7.85907 46.8247C7.95803 46.7911 8.04943 46.7381 8.12804 46.6688L14.9812 40.6095C15.14 40.4697 15.2371 40.2721 15.2511 40.0603C15.2652 39.8485 15.195 39.6397 15.0561 39.4799C14.9172 39.3201 14.7209 39.2224 14.5104 39.2083C14.2999 39.1942 14.0924 39.2648 13.9336 39.4045L7.67682 44.9345L5.94451 42.951C5.87621 42.8703 5.79265 42.804 5.69868 42.756C5.60471 42.7081 5.5022 42.6794 5.39712 42.6716C5.29204 42.6638 5.18647 42.6772 5.08654 42.7108C4.98662 42.7445 4.89434 42.7977 4.81505 42.8676C4.73577 42.9374 4.67106 43.0224 4.6247 43.1176C4.57833 43.2128 4.55123 43.3164 4.54496 43.4222C4.53869 43.528 4.55339 43.6341 4.58819 43.7342C4.62299 43.8342 4.67721 43.9264 4.74769 44.0052V44.0075ZM13.14 32.1279H34.7635C34.9714 32.1222 35.1689 32.0351 35.3139 31.8851C35.459 31.7352 35.5402 31.5341 35.5402 31.3249C35.5402 31.1156 35.459 30.9146 35.3139 30.7646C35.1689 30.6146 34.9714 30.5275 34.7635 30.5219H13.14C13.0334 30.519 12.9273 30.5376 12.828 30.5766C12.7286 30.6157 12.6381 30.6744 12.5617 30.7492C12.4852 30.8241 12.4245 30.9136 12.383 31.0124C12.3415 31.1113 12.3202 31.2176 12.3202 31.3249C12.3202 31.4322 12.3415 31.5384 12.383 31.6373C12.4245 31.7362 12.4852 31.8257 12.5617 31.9005C12.6381 31.9754 12.7286 32.034 12.828 32.0731C12.9273 32.1121 13.0334 32.1308 13.14 32.1279ZM31.8794 8.51223L27.5364 9.3532L28.2749 10.3232C24.9344 12.8973 20.9735 14.2289 16.8388 14.7819C16.6381 14.8082 16.456 14.9136 16.3326 15.0751C16.2091 15.2365 16.1545 15.4406 16.1807 15.6426C16.2068 15.8445 16.3116 16.0277 16.472 16.1519C16.6324 16.2761 16.8353 16.3311 17.036 16.3048C21.438 15.8246 25.6355 14.1817 29.2031 11.5428L29.9423 12.5145L31.8794 8.514V8.51223ZM28.9409 13.7754C28.7292 13.7754 28.5262 13.86 28.3765 14.0107C28.2268 14.1613 28.1427 14.3656 28.1427 14.5787V27.2934C28.1427 27.5065 28.2268 27.7108 28.3765 27.8614C28.5262 28.0121 28.7292 28.0967 28.9409 28.0967H32.3424C32.5541 28.0967 32.7571 28.0121 32.9068 27.8614C33.0565 27.7108 33.1406 27.5065 33.1406 27.2934V14.5804C33.1406 14.3674 33.0565 14.1631 32.9068 14.0124C32.7571 13.8618 32.5541 13.7772 32.3424 13.7772L28.9409 13.7754ZM31.5447 15.382H29.7386V26.489H31.5447V15.3837V15.382ZM22.2511 17.2382C22.0393 17.2382 21.8363 17.3229 21.6866 17.4735C21.5369 17.6242 21.4528 17.8285 21.4528 18.0415V27.2934C21.4528 27.5065 21.5369 27.7108 21.6866 27.8614C21.8363 28.0121 22.0393 28.0967 22.2511 28.0967H25.6525C25.8642 28.0967 26.0672 28.0121 26.2169 27.8614C26.3666 27.7108 26.4507 27.5065 26.4507 27.2934V18.0433C26.4507 17.8302 26.3666 17.6259 26.2169 17.4753C26.0672 17.3246 25.8642 17.24 25.6525 17.24L22.2511 17.2382ZM24.8542 18.8454H23.0482V26.4907H24.8536L24.8542 18.8454ZM15.5606 20.7023C15.349 20.7023 15.1461 20.7868 14.9965 20.9374C14.847 21.0879 14.7629 21.2921 14.7629 21.5049V27.2928C14.7629 27.5058 14.8469 27.71 14.9965 27.8606C15.1461 28.0113 15.349 28.096 15.5606 28.0961H18.9626C19.1743 28.0961 19.3774 28.0115 19.5271 27.8608C19.6768 27.7102 19.7609 27.5059 19.7609 27.2928V21.5055C19.7607 21.2926 19.6765 21.0884 19.5268 20.9379C19.3772 20.7874 19.1742 20.7028 18.9626 20.7028L15.5606 20.7023ZM18.1643 22.3082H16.3589V26.4896H18.1643V22.3082ZM29.1668 1.60539H18.7373C18.585 1.60632 18.4392 1.66761 18.3315 1.77597C18.2238 1.88434 18.1629 2.03105 18.162 2.1843V5.65362C18.1629 5.80687 18.2238 5.95358 18.3315 6.06194C18.4392 6.17031 18.585 6.2316 18.7373 6.23252H29.1663C29.3185 6.23144 29.4641 6.17009 29.5717 6.06174C29.6792 5.95339 29.74 5.80677 29.741 5.65362V2.18489C29.74 2.03174 29.6792 1.88512 29.5717 1.77677C29.4641 1.66842 29.319 1.60647 29.1668 1.60539Z" fill="#2360BF"/>
</svg>
