<svg width="45" height="51" viewBox="0 0 45 51" fill="none" xmlns="http://www.w3.org/2000/svg">
<path d="M12.8793 18.4868H19.21C19.5357 18.4868 19.8057 18.2043 19.8057 17.8447C19.8137 15.8412 19.0908 13.9576 17.7723 12.5363C16.4617 11.1236 14.7301 10.353 12.8793 10.353C12.7205 10.3616 12.5537 10.413 12.4345 10.5414C12.3233 10.6613 12.2598 10.8239 12.2598 10.9952L12.2836 17.8447C12.2836 18.2043 12.5537 18.4868 12.8793 18.4868Z" fill="#2360BF"/>
<path d="M17.2479 19.9597C17.1367 19.8399 16.9858 19.7714 16.8269 19.7714H11.084V13.564C11.084 13.2044 10.8219 12.939 10.4803 12.9219C8.61371 12.9219 6.85828 13.701 5.53972 15.1223C4.23705 16.535 3.51422 18.41 3.51422 20.405C3.50628 22.3999 4.22911 24.2835 5.53972 25.6962C6.85828 27.1175 8.62165 27.9052 10.4962 27.9052C14.3089 27.888 17.4226 24.5318 17.4226 20.4135C17.4226 20.2508 17.3591 20.0882 17.2479 19.9597Z" fill="#2360BF"/>
<path d="M22.9829 12.9986H31.0849C31.4106 12.9986 31.6807 12.7075 31.6807 12.3565C31.6807 12.0055 31.4106 11.7144 31.0849 11.7144H22.9829C22.6573 11.7144 22.3872 12.0055 22.3872 12.3565C22.3872 12.7075 22.6573 12.9986 22.9829 12.9986Z" fill="#2360BF"/>
<path d="M22.9829 16.4923H31.0849C31.4106 16.4923 31.6807 16.2012 31.6807 15.8501C31.6807 15.4991 31.4106 15.208 31.0849 15.208H22.9829C22.6573 15.208 22.3872 15.4991 22.3872 15.8501C22.3872 16.2012 22.6573 16.4923 22.9829 16.4923Z" fill="#2360BF"/>
<path d="M31.6807 19.3433C31.6807 18.9923 31.4106 18.7012 31.0849 18.7012H22.9829C22.6573 18.7012 22.3872 18.9923 22.3872 19.3433C22.3872 19.6943 22.6573 19.9855 22.9829 19.9855H31.0849C31.4185 19.9855 31.6807 19.6943 31.6807 19.3433Z" fill="#2360BF"/>
<path d="M7.65261 37.7515H3.80814C3.48247 37.7515 3.2124 38.0426 3.2124 38.3936V47.024C3.2124 47.375 3.48247 47.6661 3.80814 47.6661H7.65261C7.97827 47.6661 8.24834 47.375 8.24834 47.024V38.3936C8.24834 38.0426 7.98622 37.7515 7.65261 37.7515Z" fill="#2360BF"/>
<path d="M14.4599 33.5815H10.6154C10.2897 33.5815 10.0197 33.8726 10.0197 34.2237V47.0323C10.0197 47.3833 10.2897 47.6744 10.6154 47.6744H14.4599C14.7855 47.6744 15.0556 47.3833 15.0556 47.0323V34.2237C15.0556 33.8641 14.7935 33.5815 14.4599 33.5815Z" fill="#2360BF"/>
<path d="M21.2752 29.4033H17.4307C17.105 29.4033 16.835 29.6944 16.835 30.0455V47.0322C16.835 47.3833 17.105 47.6744 17.4307 47.6744H21.2752C21.6008 47.6744 21.8709 47.3833 21.8709 47.0322V30.0455C21.8709 29.6859 21.6008 29.4033 21.2752 29.4033Z" fill="#2360BF"/>
<path d="M44.833 32.0858C44.7876 31.8288 44.5833 31.628 44.3413 31.5959L42.8663 31.355C42.6999 30.7687 42.4805 30.2225 42.2234 29.7165L43.1084 28.4315C43.1462 28.3833 43.1689 28.3271 43.1916 28.2628C43.2143 28.1986 43.2294 28.1183 43.2294 28.046C43.2294 27.9255 43.1916 27.805 43.131 27.7087C42.4049 26.5682 41.4745 25.5883 40.3853 24.7852C40.2113 24.6567 39.9693 24.6487 39.7726 24.7611C39.7499 24.7772 39.7197 24.7932 39.697 24.8093L38.4943 25.7409C37.9951 25.4598 37.4731 25.235 36.9512 25.0583L36.7243 23.4921C36.6865 23.2351 36.4974 23.0263 36.2629 22.9781C35.809 22.8898 35.3476 22.8416 34.8862 22.8094V8.63386C34.8862 6.90709 33.5625 5.50157 31.9362 5.50157H24.9471L23.1998 3.14031C23.0939 2.99575 22.9275 2.9074 22.7535 2.9074H20.9457C20.6507 1.23685 19.2892 0 17.6326 0C15.9761 0 14.607 1.23685 14.312 2.9074H12.5042C12.3302 2.9074 12.1638 2.99575 12.0579 3.14031L10.3182 5.50157H3.31387C1.6876 5.50157 0.363892 6.90709 0.363892 8.63386V47.8757C0.363892 49.6025 1.6876 51 3.31387 51H31.9287C33.555 51 34.8787 49.5945 34.8787 47.8757V45.4984C35.3476 45.4743 35.809 45.4261 36.2553 45.3378C36.3612 45.3137 36.4596 45.2655 36.5428 45.1852C36.6335 45.0888 36.7016 44.9603 36.7167 44.8238L36.9437 43.2576C37.4656 43.089 37.9875 42.8561 38.4867 42.575L39.6894 43.5146C39.697 43.5227 39.7121 43.5307 39.7197 43.5387C39.9088 43.6833 40.1659 43.6913 40.3702 43.5468C41.1568 42.9685 41.8754 42.2858 42.4881 41.5068C42.6999 41.2337 42.9117 40.9446 43.1235 40.6072C43.2369 40.4225 43.2445 40.1735 43.1537 39.9808C43.1386 39.9487 43.1235 39.9246 43.1008 39.8924L42.2082 38.6154C42.3066 38.4227 42.3973 38.2219 42.4957 38.0131C42.6394 37.6597 42.7528 37.3224 42.8512 36.977L44.3186 36.7361C44.5682 36.712 44.78 36.5112 44.8254 36.2381C44.9464 35.5233 44.9994 34.8487 44.9994 34.166C45.0069 33.4753 44.9464 32.7765 44.833 32.0858ZM17.6251 2.68252C18.0184 2.68252 18.3815 3.06803 18.3815 3.48567C18.3815 3.90331 18.0184 4.28882 17.6251 4.28882C17.2317 4.28882 16.8687 3.90331 16.8687 3.48567C16.8687 3.06803 17.2317 2.68252 17.6251 2.68252ZM33.7516 47.8757C33.7516 48.9359 32.9347 49.7953 31.9362 49.7953H3.31387C2.31542 49.7953 1.4985 48.9359 1.4985 47.8757V8.63386C1.4985 7.5737 2.31542 6.7063 3.31387 6.7063H9.4105L8.79781 7.53354C8.59358 7.80661 8.55576 8.17606 8.69948 8.48929C8.8432 8.80252 9.13819 9.00331 9.46345 9.00331H25.7715C26.1044 9.00331 26.3918 8.81055 26.5355 8.48929C26.6792 8.17606 26.6414 7.80661 26.4372 7.53354L25.8321 6.7063H31.9287C32.9271 6.7063 33.7441 7.5737 33.7441 8.63386V22.8014C33.7365 22.8014 33.7289 22.8094 33.7138 22.8175C33.2524 22.8416 32.791 22.8898 32.3447 22.9861C32.1102 23.0343 31.9211 23.2512 31.8833 23.5002L31.6564 25.0663C31.1345 25.243 30.6201 25.4679 30.1209 25.749L28.9106 24.8173C28.9031 24.8093 28.8955 24.8013 28.8804 24.8013C28.6913 24.6567 28.4265 24.6487 28.2299 24.7932C27.1558 25.5803 26.2254 26.5682 25.4765 27.7247C25.3555 27.9094 25.348 28.1424 25.4312 28.3271C25.4463 28.3672 25.469 28.3994 25.4917 28.4395L26.3767 29.7246C26.1195 30.2386 25.9001 30.7847 25.7413 31.363L24.2663 31.6039C24.1453 31.62 24.0243 31.6843 23.941 31.7726C23.8578 31.8609 23.7973 31.9734 23.7746 32.0939C23.6612 32.7444 23.6007 33.4431 23.6007 34.166C23.6007 34.8728 23.6536 35.5635 23.7671 36.2301C23.8049 36.471 23.9789 36.6557 24.1982 36.712C24.2209 36.72 24.2436 36.728 24.2663 36.728L25.7413 36.969C25.8321 37.2983 25.9531 37.6356 26.1044 38.005C26.18 38.1898 26.2708 38.3905 26.3842 38.6074L25.5219 39.8523C25.4917 39.8924 25.4614 39.9326 25.4387 39.9808C25.3404 40.1816 25.3555 40.4225 25.4765 40.5992C25.7262 40.9847 25.9455 41.2899 26.1649 41.555C26.77 42.3019 27.4659 42.9605 28.2299 43.5227C28.4265 43.6672 28.714 43.6512 28.9031 43.5066L30.1057 42.5669C30.6125 42.848 31.1269 43.0809 31.6488 43.2496L31.8757 44.8157C31.8984 44.9442 31.9589 45.0728 32.0421 45.1691C32.1254 45.2575 32.2312 45.3137 32.3447 45.3378C32.7986 45.4261 33.2524 45.4663 33.6987 45.4984C33.7138 45.4984 33.7214 45.5145 33.7365 45.5145V47.8757H33.7516ZM34.3038 38.6235C31.9816 38.6235 30.0906 36.6156 30.0906 34.1499C30.0906 31.6843 31.9816 29.6844 34.3038 29.6844C36.626 29.6844 38.5094 31.6923 38.5094 34.1499C38.517 36.6236 36.626 38.6235 34.3038 38.6235Z" fill="#2360BF"/>
</svg>
