<svg width="46" height="46" viewBox="0 0 46 46" fill="none" xmlns="http://www.w3.org/2000/svg">
<path d="M31.7788 11.5751V6.02959C31.7788 4.67016 30.6474 3.5642 29.2565 3.5642H27.9032C27.2669 3.5642 26.7511 4.06826 26.7511 4.69018C26.7511 5.31209 27.2669 5.81615 27.9032 5.81615H29.2565C29.3748 5.81615 29.4748 5.91386 29.4748 6.02959V9.65334L29.3857 9.60442C29.2137 9.51022 29.0197 9.46068 28.8225 9.46068H24.2391C23.6028 9.46068 23.087 9.96474 23.087 10.5866C23.087 11.2086 23.6028 11.7126 24.2391 11.7126H28.5215L30.0635 12.5574C30.2386 12.6532 30.4326 12.7011 30.6267 12.7011C30.828 12.7011 31.0294 12.6496 31.209 12.5467C31.562 12.3447 31.7788 11.9748 31.7788 11.5751ZM25.391 5.68316V2.46551C25.391 1.10596 24.2596 0 22.8688 0H16.7436C15.3528 0 14.2213 1.10596 14.2213 2.46551V9.30054C14.2213 9.76544 14.5135 10.1824 14.9571 10.3504C15.0925 10.4017 15.2334 10.4265 15.3731 10.4265C15.6909 10.4265 16.0018 10.2979 16.2245 10.0592L18.0076 8.14829H22.8688C24.2596 8.14842 25.391 7.04246 25.391 5.68316ZM23.0869 5.68316C23.0869 5.79676 22.985 5.89647 22.8687 5.89647H17.4991C17.1751 5.89647 16.8662 6.02971 16.6478 6.26379L16.5253 6.39503V2.46551C16.5253 2.34978 16.6253 2.25195 16.7436 2.25195H22.8688C22.985 2.25195 23.087 2.35166 23.087 2.46551L23.0869 5.68316ZM11.296 14.7872C11.296 12.1983 9.1411 10.092 6.4922 10.092C3.84343 10.092 1.6885 12.1982 1.6885 14.7872C1.6885 17.3761 3.84343 19.4823 6.4922 19.4823C9.14097 19.4823 11.296 17.3761 11.296 14.7872ZM8.99197 14.7872C8.99197 16.1343 7.87054 17.2304 6.4922 17.2304C5.11386 17.2304 3.99255 16.1343 3.99255 14.7872C3.99255 13.44 5.11386 12.3439 6.4922 12.3439C7.87054 12.344 8.99197 13.44 8.99197 14.7872ZM29.6119 43.7466H31.5724V33.3523C31.5724 32.732 32.0857 32.2286 32.7203 32.2263L39.3493 32.203V23.9692L31.2237 26.6205C30.6198 26.8173 29.9676 26.4988 29.7661 25.909C29.5646 25.3191 29.8905 24.6813 30.4941 24.4844L40.1007 21.3499C40.1998 21.3139 40.3054 21.291 40.4151 21.283C40.4947 21.2771 40.5736 21.2795 40.651 21.2893C40.8291 21.3118 40.9944 21.3741 41.1373 21.4667C41.3449 21.6007 41.5098 21.801 41.5946 22.0494C41.6397 22.1813 41.6584 22.3154 41.6534 22.4465V33.3248C41.6534 33.3562 41.6521 33.3874 41.6496 33.4181C41.6494 33.4193 41.6494 33.4204 41.6493 33.4214C41.6492 33.4225 41.6492 33.4238 41.649 33.4248C41.649 33.4246 41.649 33.4249 41.649 33.4248C41.6489 33.4258 41.6489 33.427 41.6488 33.428C41.6488 33.4278 41.6488 33.4283 41.6488 33.428C41.6488 33.4289 41.6487 33.4305 41.6485 33.4314C41.6485 33.4311 41.6485 33.4316 41.6485 33.4314C41.6485 33.4321 41.6484 33.4339 41.6483 33.4348C41.6483 33.4351 41.6483 33.4355 41.6481 33.4359C41.6481 33.4366 41.648 33.4375 41.6479 33.4383C41.6479 33.4386 41.6479 33.439 41.6478 33.4394C41.6478 33.4401 41.6476 33.4409 41.6476 33.4416C41.6476 33.4421 41.6475 33.4425 41.6475 33.443C41.6475 33.4438 41.6474 33.4445 41.6474 33.4453C41.6474 33.4456 41.6473 33.4462 41.6473 33.4465C41.6473 33.4473 41.6471 33.4479 41.6471 33.4487C41.6471 33.4492 41.647 33.4497 41.647 33.4502C41.647 33.4508 41.6469 33.4515 41.6467 33.4523C41.6467 33.4528 41.6466 33.4532 41.6466 33.4538C41.6466 33.4544 41.6465 33.455 41.6465 33.4558C41.6465 33.4563 41.6464 33.4569 41.6464 33.4574C41.6462 33.458 41.6462 33.4585 41.6461 33.4592C41.6461 33.4597 41.646 33.4603 41.646 33.4609C41.646 33.4614 41.6458 33.462 41.6457 33.4625C41.6457 33.4632 41.6456 33.4638 41.6456 33.4644C41.6456 33.4649 41.6455 33.4655 41.6453 33.4662C41.6453 33.4668 41.6452 33.4673 41.6452 33.4679C41.6451 33.4685 41.6451 33.4692 41.6449 33.4698C41.6448 33.4703 41.6448 33.4709 41.6447 33.4714C41.6447 33.472 41.6446 33.4725 41.6444 33.4732C41.6444 33.4738 41.6443 33.4743 41.6442 33.4749C41.6442 33.4754 41.6441 33.4761 41.6441 33.4766C41.6439 33.4772 41.6439 33.4778 41.6438 33.4784C41.6437 33.4789 41.6437 33.4796 41.6435 33.4802C41.6435 33.4808 41.6434 33.4814 41.6433 33.4819C41.6432 33.4824 41.6432 33.4831 41.643 33.4837C41.6429 33.4843 41.6429 33.4849 41.6428 33.4856C41.6426 33.4861 41.6426 33.4867 41.6425 33.4872C41.6424 33.4878 41.6424 33.4884 41.6423 33.4891C41.6423 33.4896 41.6421 33.4902 41.642 33.4908C41.642 33.4914 41.6419 33.4921 41.6417 33.4927C41.6416 33.4933 41.6416 33.4939 41.6415 33.4946C41.6415 33.4951 41.6414 33.4957 41.6412 33.4962C41.6412 33.4968 41.6411 33.4976 41.641 33.4983C41.641 33.4988 41.6409 33.4993 41.6409 33.4997C41.6407 33.5004 41.6406 33.5011 41.6405 33.5018C41.6405 33.5023 41.6403 33.5027 41.6403 33.5032C41.6402 33.5038 41.6401 33.5046 41.64 33.5053C41.64 33.5057 41.6398 33.5063 41.6397 33.5068C41.6397 33.5075 41.6396 33.5083 41.6394 33.509C41.6393 33.5095 41.6393 33.5097 41.6392 33.5102C41.6391 33.511 41.6389 33.5118 41.6388 33.5126C41.6388 33.513 41.6387 33.5133 41.6387 33.5137C41.6385 33.5145 41.6384 33.5153 41.6383 33.5161C41.6383 33.5163 41.6382 33.5168 41.6382 33.5171C41.638 33.5178 41.6379 33.5187 41.6378 33.5195C41.6378 33.5198 41.6377 33.5202 41.6377 33.5206C41.6375 33.5215 41.6374 33.5225 41.6371 33.5232C41.6373 33.523 41.6371 33.5235 41.6371 33.5232C41.637 33.5241 41.6368 33.5258 41.6365 33.5267C41.6366 33.5265 41.6365 33.527 41.6365 33.5267C41.6364 33.5276 41.6361 33.5293 41.6359 33.5302C41.636 33.53 41.6359 33.5305 41.6359 33.5302C41.6357 33.5312 41.6353 33.5327 41.6352 33.5337C41.6353 33.5336 41.6352 33.534 41.6352 33.5337C41.6351 33.5347 41.6347 33.5364 41.6346 33.5374C41.6343 33.5384 41.6342 33.5399 41.6339 33.5409C41.6337 33.542 41.6336 33.5434 41.6333 33.5445C41.633 33.5456 41.6329 33.5467 41.6327 33.5479C41.5268 34.0626 41.062 34.4504 40.5043 34.4509L33.8784 34.4743V44.8519C33.8785 44.8588 33.8785 44.8656 33.8785 44.8727C33.8785 45.1277 33.7917 45.3631 33.6454 45.5519C33.4351 45.8235 33.1016 45.9989 32.7263 45.9989C32.7184 45.9989 32.7103 45.9989 32.7025 45.9986H29.6138C28.9775 45.9986 28.4618 45.4946 28.4618 44.8727C28.4618 44.2507 28.9756 43.7466 29.6119 43.7466ZM44.3116 14.7872C44.3116 12.1983 42.1567 10.092 39.5078 10.092C36.8592 10.092 34.7044 12.1982 34.7044 14.7872C34.7044 17.3761 36.8592 19.4823 39.5078 19.4823C42.1566 19.4823 44.3116 17.3761 44.3116 14.7872ZM42.0076 14.7872C42.0076 16.1343 40.8861 17.2304 39.5078 17.2304C38.1296 17.2304 37.0084 16.1343 37.0084 14.7872C37.0084 13.44 38.1295 12.344 39.5077 12.344C40.8861 12.344 42.0076 13.44 42.0076 14.7872ZM0.000389099 37.3433V25.9513C0.000389099 25.3294 0.516117 24.8253 1.15242 24.8253C1.78872 24.8253 2.30445 25.3294 2.30445 25.9513V36.2484H8.7631C9.39941 36.2484 9.91513 36.7525 9.91513 37.3744V44.8725C9.91513 45.4944 9.39941 45.9985 8.7631 45.9985C8.1268 45.9985 7.61107 45.4944 7.61107 44.8725V38.5004H2.30406V44.8725C2.30406 45.4944 1.78833 45.9985 1.15203 45.9985C0.515728 45.9985 0 45.4944 0 44.8725V37.3744C0 37.364 0.000133514 37.3537 0.000389099 37.3433ZM12.1236 34.4743L5.49736 34.4509C5.31239 34.4508 5.13754 34.408 4.98265 34.332C4.98163 34.3315 4.98061 34.3309 4.97958 34.3305C4.97856 34.33 4.97754 34.3295 4.97652 34.329C4.97665 34.3292 4.97639 34.329 4.97652 34.329C4.97562 34.3287 4.97433 34.3279 4.97344 34.3274C4.97369 34.3275 4.97331 34.3274 4.97344 34.3274C4.97267 34.327 4.97126 34.3263 4.97037 34.3259C4.97011 34.3258 4.96985 34.3257 4.96947 34.3254C4.9687 34.325 4.96806 34.3247 4.9673 34.3243C4.96755 34.3244 4.96704 34.3242 4.9673 34.3243C4.96653 34.3239 4.96499 34.3232 4.96423 34.3228C4.96384 34.3227 4.96359 34.3225 4.9632 34.3223C4.96256 34.3219 4.9618 34.3215 4.96115 34.3212C4.9609 34.321 4.96051 34.3208 4.96012 34.3207C4.95948 34.3203 4.95885 34.32 4.95821 34.3197C4.95782 34.3194 4.95744 34.3192 4.95693 34.319C4.95642 34.3187 4.95577 34.3184 4.95513 34.318C4.95475 34.3178 4.95424 34.3177 4.95386 34.3174C4.95335 34.3172 4.9527 34.3168 4.95206 34.3165C4.95168 34.3163 4.95116 34.316 4.95078 34.3158C4.95014 34.3155 4.94963 34.3152 4.94899 34.3149C4.94848 34.3147 4.9481 34.3144 4.94759 34.3142C4.94707 34.3139 4.94656 34.3137 4.94604 34.3133C4.94553 34.313 4.94489 34.3128 4.94438 34.3124C4.944 34.3121 4.94349 34.3119 4.94297 34.3116C4.94246 34.3114 4.94182 34.311 4.94131 34.3108C4.94093 34.3105 4.94041 34.3104 4.94003 34.3101C4.93939 34.3098 4.93888 34.3095 4.93824 34.3091C4.93785 34.309 4.93747 34.3088 4.93696 34.3085C4.93632 34.3081 4.93568 34.3078 4.93504 34.3074C4.93478 34.3073 4.9344 34.307 4.93401 34.3069C4.93337 34.3065 4.93273 34.3061 4.93209 34.3058C4.93171 34.3056 4.93132 34.3054 4.93107 34.3051C4.93043 34.3048 4.92966 34.3044 4.92902 34.304C4.92876 34.3039 4.92838 34.3036 4.92812 34.3035C4.92748 34.3031 4.92672 34.3028 4.92607 34.3024C4.92582 34.3023 4.92544 34.302 4.92505 34.3019C4.92441 34.3015 4.92365 34.3011 4.92288 34.3006C4.92314 34.3008 4.92263 34.3005 4.92288 34.3006C4.92212 34.3003 4.92057 34.2994 4.9198 34.2989C4.92006 34.299 4.91955 34.2988 4.9198 34.2989C4.91904 34.2984 4.9175 34.2976 4.91673 34.2971C4.91686 34.2973 4.9166 34.2971 4.91673 34.2971C4.91597 34.2968 4.91468 34.296 4.91379 34.2955C4.91404 34.2956 4.91366 34.2954 4.91379 34.2955C4.91302 34.295 4.91148 34.2941 4.91072 34.2936C4.91085 34.2938 4.91059 34.2936 4.91072 34.2936C4.90995 34.2931 4.90854 34.2924 4.90765 34.2919C4.9079 34.292 4.90752 34.2918 4.90765 34.2919C4.90675 34.2914 4.90534 34.2906 4.90444 34.2901C4.90457 34.2901 4.90431 34.2901 4.90444 34.2901C4.90355 34.2896 4.90253 34.289 4.90163 34.2885C4.90176 34.2886 4.9015 34.2885 4.90163 34.2885C4.90073 34.288 4.89932 34.2871 4.89843 34.2865C4.89753 34.2859 4.89651 34.2854 4.89561 34.2847C4.89472 34.2842 4.89357 34.2835 4.89267 34.2829C4.89177 34.2824 4.89062 34.2817 4.88972 34.2811C4.88781 34.2799 4.88576 34.2787 4.88384 34.2775C4.88192 34.2762 4.87999 34.2751 4.87807 34.2739C4.84684 34.2544 4.81676 34.2335 4.7877 34.2112C4.78591 34.2098 4.78412 34.2084 4.78233 34.2071C4.78143 34.2064 4.78054 34.2057 4.77964 34.2049C4.77888 34.2043 4.77798 34.2037 4.77708 34.2031C4.77721 34.2032 4.77708 34.2029 4.77708 34.2031C4.77618 34.2024 4.77517 34.2014 4.77427 34.2008C4.7735 34.2002 4.7726 34.1994 4.77171 34.1988C4.77184 34.1988 4.77171 34.1987 4.77171 34.1988C4.77094 34.1982 4.76979 34.1973 4.76889 34.1967C4.76813 34.196 4.76723 34.1953 4.76633 34.1947C4.76646 34.1948 4.7662 34.1945 4.76633 34.1947C4.76556 34.194 4.76429 34.193 4.76352 34.1924C4.76275 34.1918 4.76185 34.191 4.76108 34.1904C4.76121 34.1905 4.76095 34.1904 4.76108 34.1904C4.76031 34.1898 4.75916 34.1889 4.75839 34.1883C4.75763 34.1877 4.75673 34.1869 4.75596 34.1863C4.75622 34.1864 4.75583 34.1862 4.75596 34.1863C4.75532 34.1857 4.75404 34.1847 4.75328 34.184C4.75341 34.1842 4.75315 34.1839 4.75328 34.184C4.75264 34.1835 4.75148 34.1825 4.75071 34.1819C4.75084 34.182 4.75058 34.1818 4.75071 34.1819C4.75007 34.1814 4.74879 34.1804 4.74802 34.1798C4.74815 34.1799 4.74789 34.1797 4.74802 34.1798C4.74738 34.1793 4.74623 34.1783 4.74546 34.1778C4.74572 34.178 4.74521 34.1775 4.74546 34.1778C4.74482 34.1773 4.74354 34.176 4.74277 34.1755C4.7429 34.1757 4.74265 34.1754 4.74277 34.1755C4.74213 34.1749 4.74099 34.1739 4.74035 34.1733C4.74047 34.1734 4.74009 34.1732 4.74035 34.1733C4.7397 34.1728 4.73842 34.1717 4.73778 34.1712C4.73804 34.1714 4.73753 34.171 4.73778 34.1712C4.73727 34.1707 4.73587 34.1695 4.73523 34.169C4.73497 34.1688 4.73471 34.1685 4.73433 34.1683C4.73382 34.1678 4.73318 34.1673 4.73254 34.1666C4.7328 34.1669 4.73228 34.1665 4.73254 34.1666C4.7319 34.1661 4.73062 34.165 4.72998 34.1645C4.72972 34.1643 4.72934 34.164 4.72908 34.1638C4.72857 34.1633 4.72793 34.1628 4.72742 34.1623C4.72716 34.162 4.72691 34.1618 4.72652 34.1615C4.72601 34.1611 4.7255 34.1606 4.72499 34.1601C4.7246 34.1598 4.72435 34.1595 4.72396 34.1591C4.72345 34.1588 4.72293 34.1583 4.72242 34.1578C4.72217 34.1575 4.72179 34.1571 4.7214 34.1569C4.72089 34.1564 4.72038 34.1559 4.71987 34.1555C4.71961 34.1553 4.71923 34.1549 4.71885 34.1546C4.71833 34.1543 4.71782 34.1538 4.71743 34.1534C4.71704 34.153 4.71667 34.1528 4.71628 34.1524C4.7159 34.152 4.71539 34.1516 4.715 34.1513C4.71461 34.1509 4.71423 34.1505 4.71372 34.1501C4.71333 34.1498 4.71296 34.1494 4.71257 34.149C4.71218 34.1486 4.71167 34.1483 4.71129 34.1479C4.7109 34.1475 4.71039 34.1471 4.71001 34.1466C4.70962 34.1463 4.70924 34.1459 4.70873 34.1455C4.70834 34.1451 4.70797 34.1449 4.70758 34.1445C4.7072 34.1441 4.70668 34.1436 4.7063 34.1433C4.70591 34.143 4.70554 34.1426 4.70515 34.1423C4.70464 34.1418 4.70425 34.1414 4.70374 34.1409C4.70335 34.1405 4.7031 34.1402 4.70271 34.1399C4.70233 34.1395 4.70182 34.139 4.70131 34.1386C4.70092 34.1382 4.70054 34.1379 4.70016 34.1376C4.69965 34.1372 4.69925 34.1367 4.69874 34.1362C4.69836 34.136 4.6981 34.1356 4.69772 34.1354C4.69721 34.1349 4.6967 34.1344 4.69631 34.134C4.69606 34.1337 4.69567 34.1335 4.69542 34.1331C4.6949 34.1326 4.69439 34.1321 4.69375 34.1315C4.694 34.1317 4.69349 34.1312 4.69375 34.1315C4.69324 34.131 4.69183 34.1297 4.69132 34.1292C4.69107 34.129 4.69081 34.1287 4.69056 34.1285C4.68991 34.1279 4.6894 34.1274 4.68876 34.1267C4.68901 34.127 4.6885 34.1266 4.68876 34.1267C4.68812 34.1262 4.68697 34.125 4.68633 34.1244C4.68658 34.1246 4.6862 34.1241 4.68633 34.1244C4.68569 34.1237 4.68441 34.1225 4.68377 34.1219C4.68402 34.122 4.68364 34.1217 4.68377 34.1219C4.68312 34.1212 4.68198 34.1201 4.68134 34.1195C4.68159 34.1197 4.68108 34.1192 4.68134 34.1195C4.68069 34.119 4.67941 34.1176 4.67877 34.117C4.6789 34.1171 4.67864 34.1169 4.67877 34.117C4.67813 34.1164 4.67712 34.1154 4.67648 34.1146C4.67673 34.1147 4.67635 34.1145 4.67648 34.1146C4.67583 34.114 4.67468 34.1129 4.67391 34.1122C4.67404 34.1124 4.67378 34.1121 4.67391 34.1122C4.67327 34.1116 4.67225 34.1106 4.67161 34.1099C4.67174 34.11 4.67148 34.1097 4.67161 34.1099C4.67097 34.1092 4.66982 34.1081 4.66918 34.1075C4.66931 34.1076 4.66918 34.1073 4.66918 34.1075C4.66854 34.1067 4.66751 34.1059 4.66674 34.1051C4.66597 34.1043 4.66508 34.1033 4.66431 34.1026C4.66354 34.1018 4.66277 34.101 4.66201 34.1002C4.66214 34.1003 4.66188 34.1001 4.66201 34.1002C4.66137 34.0995 4.66034 34.0985 4.65958 34.0977C4.65881 34.097 4.65804 34.096 4.65727 34.0952C4.59903 34.0344 4.5477 33.9672 4.50431 33.8949C4.50315 33.8929 4.50188 33.8909 4.50085 33.889C4.50034 33.888 4.4997 33.887 4.49919 33.8862C4.49868 33.8853 4.49817 33.8843 4.49753 33.8834C4.49766 33.8835 4.4974 33.8833 4.49753 33.8834C4.49714 33.8827 4.49637 33.8813 4.49586 33.8804C4.49599 33.8805 4.49586 33.8803 4.49586 33.8804C4.49535 33.8797 4.49471 33.8783 4.4942 33.8774C4.49433 33.8777 4.49407 33.8773 4.4942 33.8774C4.49381 33.8766 4.49292 33.8751 4.49253 33.8744C4.49266 33.8746 4.4924 33.8741 4.49253 33.8744C4.49215 33.8736 4.49138 33.8721 4.49087 33.8714C4.49074 33.8711 4.49061 33.8708 4.49036 33.8705C4.48997 33.8699 4.48959 33.8691 4.4892 33.8684C4.48907 33.8681 4.48882 33.8678 4.48869 33.8675C4.4883 33.8668 4.48793 33.8661 4.48754 33.8655C4.48741 33.8651 4.48716 33.8648 4.48703 33.8644C4.48664 33.8638 4.48626 33.8631 4.48588 33.8625C4.48575 33.8621 4.48549 33.8618 4.48524 33.8613C4.48498 33.8608 4.4846 33.8601 4.48434 33.8595C4.48409 33.859 4.48383 33.8585 4.48344 33.858C4.48318 33.8575 4.48293 33.857 4.48267 33.8565C4.48242 33.856 4.48216 33.8554 4.48178 33.8549C4.48152 33.8544 4.4814 33.854 4.48101 33.8535C4.48075 33.8529 4.48037 33.8522 4.48011 33.8517C4.47986 33.8514 4.47974 33.851 4.47948 33.8505C4.47923 33.8499 4.47883 33.8492 4.47845 33.8485C4.47832 33.8481 4.4782 33.8479 4.47794 33.8475C4.47755 33.8469 4.47717 33.8461 4.47678 33.8454C4.47665 33.8451 4.47653 33.8449 4.47628 33.8445C4.47589 33.8437 4.47551 33.843 4.47512 33.8421C4.47525 33.8422 4.47499 33.842 4.47512 33.8421C4.47474 33.8414 4.47397 33.84 4.47346 33.8391C4.47359 33.8394 4.47333 33.8389 4.47346 33.8391C4.47307 33.8382 4.47218 33.8366 4.47179 33.8357C4.47179 33.8356 4.47179 33.8359 4.47179 33.8357C4.47128 33.8349 4.47065 33.8336 4.47026 33.8327C4.47026 33.8326 4.47026 33.8329 4.47026 33.8327C4.46975 33.8317 4.46923 33.8306 4.46872 33.8296C4.46821 33.8286 4.4677 33.8276 4.46719 33.8266C4.38988 33.6747 4.34673 33.5033 4.34737 33.322V22.4335C4.34584 22.3685 4.35006 22.3028 4.36043 22.237C4.38385 22.0858 4.43801 21.9447 4.51647 21.8196C4.58278 21.7134 4.66572 21.6206 4.76057 21.5432C4.93158 21.4034 5.14458 21.3112 5.37844 21.2873C5.45192 21.2796 5.52666 21.2789 5.6018 21.2855C5.70433 21.2943 5.80302 21.3163 5.89608 21.3497L15.5072 24.4857C16.1106 24.6826 16.4366 25.3204 16.2352 25.9103C16.0337 26.5 15.3811 26.8184 14.7777 26.6218L6.65143 23.9703V32.2042L13.2807 32.2276C13.9154 32.2298 14.4287 32.7333 14.4287 33.3536V43.7478H16.3894C17.0257 43.7478 17.5414 44.2519 17.5414 44.8738C17.5414 45.4957 17.0257 45.9997 16.3894 45.9997H13.3004C13.2925 45.9999 13.2846 46 13.2766 46C12.9012 46 12.5679 45.8246 12.3576 45.553C12.2113 45.3642 12.1245 45.1289 12.1245 44.8738C12.1245 44.8669 12.1245 44.86 12.1246 44.853V34.4743H12.1236ZM37.2372 36.2484H43.6958V25.9513C43.6958 25.3294 44.2115 24.8253 44.8478 24.8253C45.4841 24.8253 45.9999 25.3294 45.9999 25.9513V37.3538C46 37.3607 46 37.3675 46 37.3745V44.8727C46 45.4946 45.4843 45.9986 44.848 45.9986C44.2117 45.9986 43.6959 45.4946 43.6959 44.8727V38.5005H38.3892V44.8727C38.3892 45.4946 37.8735 45.9986 37.2372 45.9986C36.6009 45.9986 36.0851 45.4946 36.0851 44.8727V37.3745C36.0851 36.7526 36.6009 36.2484 37.2372 36.2484ZM20.4367 43.7462H21.848V30.3132H14.7656C14.1293 30.3132 13.6135 29.8091 13.6135 29.1872C13.6135 28.5653 14.1293 28.0612 14.7656 28.0612H22.9762C22.9919 28.0609 23.0081 28.0609 23.0238 28.0612H31.2344C31.8708 28.0612 32.3865 28.5653 32.3865 29.1872C32.3865 29.8091 31.8708 30.3132 31.2344 30.3132H24.152V43.7462H25.5633C26.1996 43.7462 26.7153 44.2502 26.7153 44.8722C26.7153 45.4941 26.1996 45.9981 25.5633 45.9981H20.4367C19.8004 45.9981 19.2847 45.4941 19.2847 44.8722C19.2847 44.2502 19.8004 43.7462 20.4367 43.7462Z" fill="#2360BF"/>
</svg>
