<svg width="65" height="64" viewBox="0 0 65 64" fill="none" xmlns="http://www.w3.org/2000/svg">
<path d="M34.598 0.827151C42.9824 0.827151 50.5736 4.36463 56.0697 10.0791C61.5633 15.7961 64.9642 23.693 64.9642 32.4136C64.9642 41.1349 61.5634 49.0311 56.0697 54.7481C50.5735 60.4625 42.9817 64.0001 34.598 64.0001C33.8722 64.0001 33.1541 63.9734 32.4411 63.92L31.4947 63.9707L30.3662 64.0001C21.9818 64.0001 14.3906 60.4626 8.8945 54.7481C3.40088 49.0337 0 41.1342 0 32.4136C0 23.6923 3.40081 15.7961 8.8945 10.0791C14.3881 4.3647 21.9825 0.827148 30.3662 0.827148L31.4947 0.856494L32.4411 0.907182C33.154 0.856494 33.8722 0.827151 34.598 0.827151ZM52.2019 21.8415C51.5863 20.7344 51.9505 19.3178 53.0149 18.6776C54.0792 18.04 55.4411 18.4188 56.0566 19.5259C56.6721 20.6331 56.308 22.0496 55.241 22.6899C54.1767 23.3275 52.8148 22.9487 52.1993 21.8415H52.2019ZM13.1388 45.3022C12.5233 44.1951 12.8875 42.7785 13.9544 42.1383C15.0188 41.5007 16.3806 41.8795 16.9961 42.9866C17.6117 44.0938 17.2475 45.5103 16.1831 46.1506C15.1187 46.7882 13.7569 46.4094 13.1414 45.3022H13.1388ZM44.7616 50.7258C45.826 50.0856 47.1879 50.4644 47.8034 51.5715C48.4163 52.6786 48.0522 54.0952 46.9878 54.7355C45.9234 55.3758 44.5616 54.9969 43.9461 53.8871C43.3331 52.78 43.6973 51.3634 44.7616 50.7232V50.7258ZM22.2073 10.093C23.2717 9.45275 24.6335 9.83157 25.249 10.9414C25.862 12.0485 25.4978 13.4651 24.4334 14.1053C23.3691 14.7456 22.0072 14.3668 21.3917 13.2596C20.7787 12.1525 21.1429 10.7359 22.2073 10.0957V10.093ZM44.7616 14.1027C43.6973 13.4624 43.3305 12.0485 43.9461 10.9387C44.5616 9.83158 45.9234 9.45008 46.9878 10.0903C48.0522 10.7279 48.4189 12.1445 47.8034 13.2543C47.1879 14.3615 45.826 14.7429 44.7616 14.1V14.1027ZM22.2073 54.7355C21.1429 54.0979 20.7762 52.6813 21.3917 51.5715C22.0072 50.4644 23.3691 50.0829 24.4334 50.7258C25.4978 51.3661 25.8646 52.78 25.249 53.8898C24.6335 54.9969 23.2717 55.3784 22.2073 54.7382V54.7355ZM52.2019 42.9867C52.8174 41.8796 54.1767 41.4981 55.2436 42.1383C56.3079 42.7786 56.6747 44.1952 56.0592 45.3023C55.4462 46.4094 54.0844 46.7909 53.0174 46.1507C51.9531 45.5104 51.5863 44.0938 52.2044 42.9867H52.2019ZM13.1388 19.526C13.7518 18.4189 15.1136 18.0374 16.1805 18.6776C17.2449 19.3179 17.6117 20.7345 16.9936 21.8416C16.378 22.9487 15.0187 23.3302 13.9518 22.69C12.8875 22.0497 12.5207 20.6331 13.1362 19.526H13.1388ZM25.3851 19.6861C24.8696 18.7603 25.1722 17.5759 26.0621 17.0423C26.9521 16.5061 28.0882 16.8209 28.6038 17.7465L35.6697 30.4747H42.951C43.9795 30.4747 44.8156 31.3444 44.8156 32.4141C44.8156 33.4839 43.9795 34.3536 42.951 34.3536H34.6002C33.959 34.3482 33.3358 34.0014 32.9896 33.3852L25.3851 19.6861ZM52.3194 34.3538C51.2909 34.3538 50.4549 33.4841 50.4549 32.4143C50.4549 31.3419 51.2909 30.4749 52.3194 30.4749H56.9923C58.0207 30.4749 58.8568 31.3446 58.8568 32.4143C58.8568 33.4841 58.0207 34.3538 56.9923 34.3538H52.3194ZM12.2019 34.3538C11.1734 34.3538 10.3374 33.4841 10.3374 32.4143C10.3374 31.3419 11.1734 30.4749 12.2019 30.4749H16.8748C17.9032 30.4749 18.7393 31.3446 18.7393 32.4143C18.7393 33.4841 17.9032 34.3538 16.8748 34.3538H12.2019ZM32.7327 50.8484C32.7327 49.7786 33.5688 48.909 34.5972 48.909C35.6257 48.909 36.4617 49.7786 36.4617 50.8484V55.7091C36.4617 56.7789 35.6257 57.6485 34.5972 57.6485C33.5662 57.6485 32.7327 56.7789 32.7327 55.7091V50.8484ZM32.7327 9.11877C32.7327 8.049 33.5688 7.17933 34.5972 7.17933C35.6257 7.17933 36.4617 8.049 36.4617 9.11877V13.9795C36.4617 15.0492 35.6257 15.9189 34.5972 15.9189C33.5662 15.9189 32.7327 15.0492 32.7327 13.9795V9.11877ZM53.4323 12.8217C48.6132 7.80894 41.9529 4.70616 34.5967 4.70616C27.2405 4.70616 20.5803 7.8088 15.7611 12.8217C10.9419 17.8345 7.95915 24.7624 7.95915 32.4141C7.95915 40.0625 10.9419 46.991 15.7611 52.0066C20.5802 57.0193 27.2405 60.1221 34.5967 60.1221C41.9496 60.1221 48.6104 57.0195 53.4323 52.0066C58.2513 46.9939 61.2342 40.0659 61.2342 32.4141C61.2342 24.7624 58.2514 17.8345 53.4323 12.8217Z" fill="white"/>
</svg>
