<svg width="57" height="63" viewBox="0 0 57 63" fill="none" xmlns="http://www.w3.org/2000/svg">
<path fill-rule="evenodd" clip-rule="evenodd" d="M8.38235 3C5.60469 3 3.35294 5.01472 3.35294 7.5V55.5C3.35294 57.9853 5.60469 60 8.38235 60H48.6176C51.3953 60 53.6471 57.9853 53.6471 55.5V22.2596C53.6471 20.9459 53.0055 19.6979 51.8907 18.843L32.6454 4.08335C31.7338 3.38426 30.5729 3 29.3723 3H8.38235ZM0 7.5C0 3.35787 3.75291 0 8.38235 0H29.3723C31.3732 0 33.3082 0.640441 34.8274 1.80558L54.0728 16.5652C55.9307 17.9901 57 20.0702 57 22.2596V55.5C57 59.6421 53.2471 63 48.6176 63H8.38235C3.75291 63 0 59.6421 0 55.5V7.5Z" fill="white"/>
<path fill-rule="evenodd" clip-rule="evenodd" d="M30.1764 13.5V3H33.5293V13.5C33.5293 15.9853 35.7811 18 38.5587 18H53.647V21H38.5587C33.9293 21 30.1764 17.6421 30.1764 13.5Z" fill="white"/>
<path fill-rule="evenodd" clip-rule="evenodd" d="M34.0205 27.4393C34.6565 26.8703 35.681 26.8517 36.3422 27.3971L43.0481 32.9284C43.381 33.2029 43.5756 33.5862 43.5877 33.9911C43.5998 34.396 43.4284 34.7881 43.1124 35.0782L24.9688 51.7347C23.391 53.1831 21.2264 54 18.9659 54H15.0883C14.1624 54 13.4118 53.3284 13.4118 52.5V48.9853C13.4118 46.9962 14.2949 45.0885 15.8669 43.682L34.0205 27.4393ZM35.2531 30.5791L18.2378 45.8033C17.2946 46.6472 16.7647 47.7918 16.7647 48.9853V51H18.9659C20.3222 51 21.621 50.5099 22.5676 49.6408L39.5082 34.0888L35.2531 30.5791Z" fill="white"/>
</svg>
