<svg width="58" height="57" viewBox="0 0 58 57" fill="none" xmlns="http://www.w3.org/2000/svg">
<path d="M13.6693 0.00302065C12.5905 0.0579382 11.7338 0.82787 11.1945 1.79437C10.7202 2.64434 10.4543 3.69726 10.4044 4.83833H2.34114V4.83711C1.05965 4.83711 0 5.95376 0 7.30435V53.702C0 55.0526 1.05966 56.1705 2.34114 56.1705H43.2083C44.4874 56.7182 45.8869 57.0148 47.3503 56.9994C53.2387 56.9374 57.9999 51.8694 57.9999 45.6636C58.0003 45.6313 57.9991 45.599 57.9964 45.5668C57.9926 45.524 57.986 45.4814 57.9767 45.4395C57.9902 45.3649 57.9953 45.2889 57.9918 45.213C57.8054 40.279 54.6294 36.1997 50.3758 34.8285V7.30557C50.3758 5.95504 49.315 4.83833 48.0335 4.83833H39.9772C39.9213 3.58763 39.6042 2.45413 39.05 1.57275C38.4688 0.648362 37.5495 -0.0518906 36.4707 0.00302065C35.392 0.0579382 34.5364 0.82787 33.9971 1.79437C33.5228 2.64434 33.256 3.69726 33.2059 4.83833H32.3763C32.3204 3.58763 32.0034 2.45413 31.4492 1.57275C30.8679 0.648362 29.9486 -0.0518906 28.8698 0.00302065C27.7911 0.0579382 26.9356 0.82787 26.3962 1.79437C25.9219 2.64434 25.6551 3.69726 25.605 4.83833H24.7766C24.7208 3.58759 24.4037 2.45415 23.8495 1.57275C23.2682 0.648362 22.3489 -0.0518906 21.2701 0.00302065C20.1914 0.0579382 19.3347 0.82787 18.7954 1.79437C18.3211 2.64434 18.0542 3.69726 18.0041 4.83833H17.1757C17.1198 3.58763 16.8028 2.45413 16.2486 1.57275C15.6673 0.648362 14.748 -0.0518906 13.6693 0.00302065ZM13.7576 1.92661C14.0445 1.91201 14.3798 2.08713 14.7254 2.63679C15.0439 3.14335 15.2885 3.93271 15.3447 4.83833H12.232C12.2831 4.01547 12.4865 3.2795 12.77 2.77148C13.1043 2.17227 13.4707 1.94122 13.7576 1.92661ZM21.3584 1.92661C21.6453 1.91201 21.9795 2.08713 22.3251 2.63679C22.6436 3.14334 22.8881 3.93274 22.9444 4.83833H19.8329C19.8842 4.01548 20.0874 3.27949 20.3708 2.77148C20.7052 2.17227 21.0715 1.94122 21.3584 1.92661ZM28.9581 1.92661C29.245 1.91201 29.5804 2.08713 29.926 2.63679C30.2445 3.14334 30.489 3.93274 30.5452 4.83833H27.4338C27.4851 4.01548 27.6882 3.27949 27.9717 2.77148C28.3061 2.17227 28.6712 1.94122 28.9581 1.92661ZM36.559 1.92661C36.8459 1.91201 37.1812 2.08713 37.5268 2.63679C37.8454 3.14335 38.09 3.93271 38.1461 4.83833H35.0335C35.0845 4.01547 35.2879 3.2795 35.5714 2.77148C35.9058 2.17227 36.2721 1.94122 36.559 1.92661ZM2.34114 6.76192V6.76315H10.5439C10.6909 7.5101 10.9321 8.1988 11.2816 8.77735C11.8489 9.71613 12.7473 10.4401 13.8273 10.4218C13.9478 10.4206 14.0669 10.3943 14.1777 10.3444C14.2886 10.2945 14.3889 10.222 14.4731 10.1311C14.5572 10.0401 14.6235 9.93254 14.668 9.81451C14.7125 9.69649 14.7345 9.57034 14.7325 9.44335C14.7306 9.31635 14.7049 9.191 14.6568 9.07453C14.6088 8.95805 14.5393 8.85274 14.4525 8.76467C14.3656 8.67659 14.2631 8.60749 14.1508 8.56133C14.0385 8.51518 13.9187 8.49288 13.7982 8.49573C13.5119 8.50074 13.1657 8.30912 12.8234 7.7427C12.6649 7.48029 12.5278 7.14311 12.4214 6.76315H18.1447C18.2921 7.51006 18.533 8.19883 18.8825 8.77735C19.4497 9.71613 20.3482 10.4401 21.4281 10.4218C21.5485 10.4203 21.6674 10.3937 21.778 10.3437C21.8886 10.2936 21.9888 10.221 22.0727 10.13C22.1566 10.039 22.2226 9.9315 22.267 9.81356C22.3113 9.69562 22.3331 9.56961 22.3311 9.44276C22.3292 9.31591 22.3034 9.19073 22.2554 9.0744C22.2073 8.95807 22.138 8.85288 22.0513 8.76488C21.9646 8.67688 21.8622 8.60781 21.7501 8.56162C21.638 8.51543 21.5183 8.49304 21.3979 8.49573C21.1117 8.50074 20.7665 8.30912 20.4243 7.7427C20.2657 7.48028 20.1278 7.14313 20.0211 6.76315H25.7444C25.8915 7.5101 26.1326 8.1988 26.4822 8.77735C27.0495 9.71613 27.9479 10.4401 29.0279 10.4218C29.1484 10.4206 29.2675 10.3943 29.3783 10.3444C29.4891 10.2945 29.5895 10.222 29.6737 10.1311C29.7578 10.0401 29.824 9.93254 29.8686 9.81451C29.9131 9.69649 29.935 9.57034 29.9331 9.44335C29.9312 9.31635 29.9055 9.191 29.8574 9.07453C29.8093 8.95805 29.7399 8.85274 29.6531 8.76467C29.5662 8.67659 29.4637 8.60749 29.3514 8.56133C29.2391 8.51518 29.1193 8.49288 28.9988 8.49573C28.7125 8.50074 28.3662 8.30912 28.024 7.7427C27.8655 7.48029 27.7284 7.14311 27.622 6.76315H33.3453C33.4923 7.5101 33.7335 8.1988 34.0831 8.77735C34.6503 9.71613 35.5488 10.4401 36.6287 10.4218C36.7492 10.4206 36.8683 10.3943 36.9792 10.3444C37.09 10.2945 37.1904 10.222 37.2745 10.1311C37.3587 10.0401 37.4249 9.93254 37.4694 9.81451C37.514 9.69649 37.5359 9.57034 37.534 9.44335C37.5321 9.31635 37.5063 9.191 37.4583 9.07453C37.4102 8.95805 37.3408 8.85274 37.2539 8.76467C37.1671 8.67659 37.0646 8.60749 36.9523 8.56133C36.84 8.51518 36.7202 8.49288 36.5997 8.49573C36.3134 8.50074 35.9671 8.30912 35.6249 7.7427C35.4663 7.48029 35.3292 7.14311 35.2229 6.76315H48.0335C48.3341 6.76315 48.5482 6.98751 48.5482 7.30435V16.7484L1.8276 16.6248V7.30313C1.8276 6.98633 2.04059 6.76192 2.34114 6.76192ZM1.8276 18.5508L48.5482 18.6745V34.4244C48.37 34.4015 48.1944 34.3694 48.0138 34.3559C47.6595 34.3293 47.3002 34.3218 46.9379 34.3326C46.9336 34.3327 46.9294 34.3325 46.9251 34.3326C46.9239 34.3326 46.9228 34.3326 46.9216 34.3326C46.5538 34.3442 46.1904 34.3749 45.833 34.4244C45.4759 34.4739 45.123 34.5423 44.778 34.6277C43.742 34.8844 42.7652 35.2985 41.8699 35.8448C41.5714 36.0269 41.2825 36.2233 41.0031 36.4338C40.7238 36.6442 40.4541 36.8679 40.1956 37.1047C39.9374 37.3414 39.6889 37.5918 39.4532 37.8529C39.2173 38.1142 38.9932 38.387 38.7816 38.6708V38.672C38.5703 38.9556 38.371 39.2494 38.1856 39.5536C37.9999 39.8583 37.8288 40.173 37.6709 40.4964C37.5132 40.8196 37.3692 41.1507 37.241 41.4907C36.7279 42.8507 36.4589 44.3374 36.4881 45.8889C36.4948 46.2338 36.5205 46.5755 36.5567 46.9137C36.563 46.9741 36.5669 47.0349 36.5741 47.0949C36.6095 47.3831 36.6586 47.6677 36.7147 47.9496C36.7366 48.0619 36.7582 48.174 36.7832 48.2851V48.2863C36.8341 48.5078 36.892 48.7259 36.9552 48.9426C37.5556 51.0298 38.7107 52.8563 40.2386 54.2432H2.34114C2.04058 54.2432 1.8276 54.0176 1.8276 53.7008V18.5508ZM7.74262 22.8976C7.50028 22.8975 7.26781 22.9988 7.09633 23.1793C6.92486 23.3597 6.82843 23.6046 6.82824 23.86V28.9341C6.82818 29.0606 6.85179 29.186 6.89772 29.3029C6.94365 29.4198 7.011 29.5261 7.09592 29.6156C7.18084 29.7051 7.28167 29.7761 7.39263 29.8245C7.5036 29.8729 7.62252 29.8978 7.74262 29.8977H13.136C13.3783 29.8975 13.6107 29.7959 13.7819 29.6152C13.9532 29.4345 14.0493 29.1895 14.0492 28.9341V23.86C14.049 23.6048 13.9527 23.3601 13.7815 23.1797C13.6103 22.9992 13.3781 22.8978 13.136 22.8976H7.74262ZM17.5987 22.8976C17.3563 22.8975 17.1238 22.9988 16.9524 23.1793C16.7809 23.3597 16.6845 23.6046 16.6843 23.86V28.9341C16.6842 29.0606 16.7078 29.186 16.7538 29.3029C16.7997 29.4198 16.867 29.5261 16.952 29.6156C17.0369 29.7051 17.1377 29.7761 17.2487 29.8245C17.3596 29.8729 17.4786 29.8978 17.5987 29.8977H22.992C23.2343 29.8975 23.4667 29.7959 23.6379 29.6152C23.8092 29.4345 23.9053 29.1895 23.9052 28.9341V23.86C23.905 23.6048 23.8088 23.3601 23.6375 23.1797C23.4663 22.9992 23.2341 22.8978 22.992 22.8976H17.5987ZM27.4547 22.96C27.2124 22.9599 26.9799 23.0612 26.8084 23.2417C26.6369 23.4222 26.5405 23.667 26.5403 23.9224V28.9977C26.5405 29.2531 26.6369 29.498 26.8084 29.6785C26.9799 29.859 27.2124 29.9603 27.4547 29.9601H32.848C33.0904 29.9603 33.3229 29.859 33.4943 29.6785C33.6658 29.498 33.7622 29.2531 33.7624 28.9977V23.9224C33.7622 23.667 33.6658 23.4222 33.4943 23.2417C33.3229 23.0612 33.0904 22.9599 32.848 22.96H27.4547ZM37.3107 22.96C37.0686 22.9602 36.8364 23.0617 36.6652 23.2421C36.494 23.4226 36.3977 23.6673 36.3975 23.9224V28.9977C36.3977 29.2529 36.494 29.4976 36.6652 29.678C36.8364 29.8585 37.0686 29.9599 37.3107 29.9601H42.7041C42.9464 29.9603 43.1789 29.859 43.3504 29.6785C43.5218 29.498 43.6183 29.2531 43.6185 28.9977V23.9224C43.6183 23.667 43.5218 23.4222 43.3504 23.2417C43.1789 23.0612 42.9464 22.9599 42.7041 22.96H37.3107ZM8.65584 24.8236H12.2216V27.9717H8.65584V24.8236ZM18.5119 24.8236H22.0776V27.9717H18.5119V24.8236ZM28.3691 24.8861H31.9348V28.0341H28.3691V24.8861ZM38.2251 24.8861H41.7909V28.0341H38.2251V24.8861ZM7.86113 31.8629C7.74103 31.8629 7.62211 31.8877 7.51114 31.9362C7.40018 31.9846 7.29935 32.0555 7.21443 32.145C7.12951 32.2345 7.06216 32.3408 7.01623 32.4577C6.9703 32.5747 6.94669 32.7 6.94675 32.8266V37.9006C6.94669 38.0272 6.9703 38.1525 7.01623 38.2695C7.06216 38.3864 7.12951 38.4927 7.21443 38.5822C7.29935 38.6717 7.40018 38.7426 7.51114 38.791C7.62211 38.8394 7.74103 38.8643 7.86113 38.8643H13.2545C13.3746 38.8643 13.4935 38.8394 13.6045 38.791C13.7154 38.7426 13.8162 38.6717 13.9012 38.5822C13.9861 38.4927 14.0534 38.3864 14.0994 38.2695C14.1453 38.1525 14.1689 38.0272 14.1689 37.9006V32.8266C14.1689 32.7 14.1453 32.5747 14.0994 32.4577C14.0534 32.3408 13.9861 32.2345 13.9012 32.145C13.8162 32.0555 13.7154 31.9846 13.6045 31.9362C13.4935 31.8877 13.3746 31.8629 13.2545 31.8629H7.86113ZM17.7172 31.8629C17.4748 31.8631 17.2425 31.9648 17.0712 32.1455C16.9 32.3262 16.8038 32.5712 16.8039 32.8266V37.9006C16.8038 38.156 16.9 38.401 17.0712 38.5817C17.2425 38.7624 17.4748 38.8641 17.7172 38.8643H23.1105C23.2306 38.8643 23.3495 38.8394 23.4605 38.791C23.5715 38.7426 23.6723 38.6717 23.7572 38.5822C23.8421 38.4927 23.9095 38.3864 23.9554 38.2695C24.0013 38.1525 24.025 38.0272 24.0249 37.9006V32.8266C24.025 32.7 24.0013 32.5747 23.9554 32.4577C23.9095 32.3408 23.8421 32.2345 23.7572 32.145C23.6723 32.0555 23.5715 31.9846 23.4605 31.9362C23.3495 31.8877 23.2306 31.8629 23.1105 31.8629H17.7172ZM27.5744 31.9254C27.4543 31.9253 27.3353 31.9502 27.2244 31.9986C27.1134 32.047 27.0126 32.118 26.9277 32.2075C26.8428 32.297 26.7754 32.4032 26.7295 32.5202C26.6835 32.6371 26.6599 32.7624 26.66 32.889V37.9631C26.6599 38.0896 26.6835 38.215 26.7295 38.3319C26.7754 38.4489 26.8428 38.5551 26.9277 38.6446C27.0126 38.7341 27.1134 38.8051 27.2244 38.8535C27.3353 38.9019 27.4543 38.9268 27.5744 38.9267H32.9677C33.2101 38.9265 33.4424 38.8249 33.6137 38.6442C33.7849 38.4635 33.8811 38.2185 33.8809 37.9631V32.889C33.8811 32.6336 33.7849 32.3886 33.6137 32.2079C33.4424 32.0272 33.2101 31.9256 32.9677 31.9254H27.5744ZM8.77551 33.789H12.3413V36.937H8.77551V33.789ZM18.6315 33.789H22.1973V36.937H18.6315V33.789ZM28.4876 33.8526H32.0533V37.0007H28.4876V33.8526ZM46.9716 36.2587C46.9933 36.2581 47.015 36.2591 47.0366 36.2587C47.0468 36.2584 47.0567 36.2589 47.0669 36.2587C47.2689 36.2544 47.4686 36.2612 47.6675 36.2709C47.6702 36.271 47.673 36.272 47.6757 36.2721C47.8219 36.2804 47.9681 36.2893 48.1137 36.3052C48.1156 36.3054 48.1176 36.305 48.1195 36.3052C48.1257 36.3058 48.1318 36.307 48.1381 36.3076C48.1428 36.3081 48.1473 36.3096 48.152 36.3101C48.5217 36.3521 48.8885 36.4181 49.2511 36.5084C49.2872 36.5169 49.3236 36.523 49.3604 36.5268C53.1414 37.4935 56.0029 40.9891 56.1654 45.2889C56.167 45.3515 56.1743 45.4139 56.1874 45.475C56.1765 45.5372 56.1715 45.6004 56.1723 45.6636C56.1723 50.8352 52.2388 55.0219 47.3318 55.0734C46.1072 55.0862 44.939 54.8395 43.8729 54.3828L43.8717 54.3816C43.8703 54.381 43.8686 54.381 43.8671 54.3804C43.8316 54.3577 43.7948 54.3377 43.7567 54.3204C42.3503 53.6916 41.1536 52.7104 40.2433 51.4993C40.2247 51.4746 40.207 51.4494 40.1887 51.4246C39.8286 50.9355 39.5159 50.4096 39.2534 49.8548C39.2348 49.8156 39.2156 49.7769 39.1976 49.7373C39.1223 49.5724 39.0523 49.405 38.9861 49.2353C38.9563 49.1586 38.9292 49.0803 38.9013 49.0026C38.816 48.7663 38.7397 48.5256 38.6724 48.2814C38.649 48.1957 38.6262 48.1098 38.605 48.0231C38.5906 47.9639 38.5731 47.9063 38.5597 47.8468C38.5331 47.7294 38.5124 47.6104 38.49 47.4917C38.4713 47.3912 38.4569 47.2896 38.4412 47.188C38.4307 47.12 38.4178 47.0533 38.4087 46.9847C38.3956 46.8879 38.3817 46.7909 38.3715 46.6933C38.3429 46.4156 38.3211 46.1356 38.3157 45.8509C38.2976 44.8819 38.4182 43.9425 38.6585 43.058C38.7385 42.7634 38.8326 42.4756 38.9385 42.1935V42.1923C39.0444 41.9102 39.1625 41.635 39.2929 41.367C40.728 38.4166 43.6013 36.3668 46.9716 36.2587ZM7.62295 40.8295C7.38081 40.8297 7.14863 40.9312 6.97741 41.1116C6.80619 41.292 6.70992 41.5367 6.70973 41.7919V46.8672C6.70992 47.1224 6.80619 47.3671 6.97741 47.5475C7.14863 47.728 7.38081 47.8294 7.62295 47.8296H13.0163C13.2586 47.8297 13.4911 47.7284 13.6626 47.5479C13.834 47.3675 13.9305 47.1226 13.9307 46.8672V41.7919C13.9305 41.5365 13.834 41.2916 13.6626 41.1112C13.4911 40.9307 13.2586 40.8294 13.0163 40.8295H7.62295ZM17.479 40.8295C17.2368 40.8297 17.0047 40.9312 16.8335 41.1116C16.6622 41.292 16.566 41.5367 16.5658 41.7919V46.8672C16.566 47.1224 16.6622 47.3671 16.8335 47.5475C17.0047 47.728 17.2368 47.8294 17.479 47.8296H22.8735C23.1156 47.8294 23.3478 47.728 23.519 47.5475C23.6902 47.3671 23.7865 47.1224 23.7867 46.8672V41.7919C23.7865 41.5367 23.6902 41.292 23.519 41.1116C23.3478 40.9312 23.1156 40.8297 22.8735 40.8295H17.479ZM27.3362 40.8919C27.2161 40.8919 27.0972 40.9168 26.9862 40.9652C26.8752 41.0136 26.7744 41.0845 26.6895 41.174C26.6046 41.2635 26.5372 41.3698 26.4913 41.4867C26.4454 41.6037 26.4217 41.729 26.4218 41.8556V46.9296C26.422 47.185 26.5184 47.4299 26.6899 47.6104C26.8614 47.7909 27.0938 47.8922 27.3362 47.8921H32.7295C32.9717 47.8919 33.2038 47.7904 33.3751 47.61C33.5463 47.4295 33.6426 47.1848 33.6427 46.9296V41.8556C33.6429 41.6002 33.5467 41.3552 33.3755 41.1745C33.2042 40.9938 32.9719 40.8921 32.7295 40.8919H27.3362ZM51.6701 42.5817C51.4996 42.5846 51.3335 42.639 51.1914 42.7384L45.5042 46.5917L43.4593 44.3093C43.3797 44.2164 43.2832 44.1411 43.1756 44.0879C43.068 44.0347 42.9513 44.0048 42.8326 43.9997C42.7138 43.9947 42.5953 44.0148 42.484 44.0587C42.3727 44.1026 42.2708 44.1695 42.1843 44.2554C42.0979 44.3414 42.0286 44.4447 41.9806 44.5593C41.9325 44.6738 41.9067 44.7974 41.9045 44.9226C41.9024 45.0478 41.924 45.1723 41.9682 45.2886C42.0123 45.4049 42.078 45.5107 42.1615 45.5999L44.7153 48.4504C44.8583 48.6098 45.0497 48.7115 45.2563 48.7379C45.463 48.7643 45.6719 48.7137 45.8469 48.5949L52.1558 44.3204C52.3214 44.2117 52.4487 44.0488 52.5181 43.8567C52.5875 43.6645 52.5953 43.4537 52.5402 43.2564C52.4851 43.0592 52.3702 42.8864 52.213 42.7646C52.0559 42.6427 51.8652 42.5784 51.6701 42.5817ZM8.53733 42.7555H12.1031V45.9036H8.53733V42.7555ZM18.3934 42.7555H21.9591V45.9036H18.3934V42.7555ZM28.2494 42.818H31.8151V45.966H28.2494V42.818Z" fill="white"/>
</svg>
