<svg width="60" height="72" viewBox="0 0 60 72" fill="none" xmlns="http://www.w3.org/2000/svg">
<path fill-rule="evenodd" clip-rule="evenodd" d="M6.52409 0.402371H58.0596C58.6055 0.402371 59.0478 0.844046 59.0478 1.38993V71.012C59.0478 71.2724 58.9443 71.5234 58.756 71.7085C58.5709 71.8935 58.32 72.0002 58.0596 72.0002H6.52409C3.44648 71.9939 0.952357 69.4998 0.949219 66.4222V5.93018C0.96488 2.86823 3.45901 0.392959 6.52409 0.402371ZM57.0713 60.8477V2.3788H7.51235V60.8477H57.0713ZM5.53583 60.9384V2.51685C3.99856 2.94347 2.93506 4.33659 2.92565 5.93032V62.1714C3.67232 61.5345 4.57272 61.1109 5.53583 60.9384ZM6.52369 70.0243H57.0713V62.8242H6.52369C4.53465 62.8242 2.92212 64.4368 2.92212 66.4227C2.92212 68.4117 4.53465 70.0243 6.52369 70.0243ZM48.02 55.5775H16.5629C14.4766 55.5743 12.7825 53.8834 12.7794 51.794V11.4333C12.7825 9.34396 14.4766 7.65297 16.5629 7.64983H48.02C50.1062 7.65297 51.8003 9.34388 51.8035 11.4333V51.794C51.8004 53.8833 50.1063 55.5743 48.02 55.5775ZM16.5629 9.62618C15.5652 9.62618 14.7558 10.4356 14.7558 11.4332V51.7939C14.7558 52.7916 15.5652 53.601 16.5629 53.601H48.02C49.0177 53.601 49.8271 52.7916 49.8271 51.7939V11.4332C49.8271 10.4356 49.0177 9.62618 48.02 9.62618H16.5629Z" fill="white"/>
<path d="M24.522 35.6068C24.2879 36.5227 23.5818 37.2391 22.6778 37.4779L20.1263 38.1735C19.7498 38.2751 19.3479 38.1661 19.0727 37.8869C18.7975 37.6065 18.6901 37.2 18.7903 36.8179L19.4722 34.2549C19.8403 32.8393 21.2693 31.9956 22.6632 32.369C24.0585 32.7425 24.8901 34.1912 24.522 35.6068ZM27.7987 38.1735L29.0865 37.4583C29.3737 37.3004 29.7141 37.2771 30.0194 37.3959C30.3248 37.5134 30.5649 37.7608 30.676 38.0718C30.8474 38.5592 31.2191 38.9474 31.6946 39.1359C32.1702 39.3233 32.7024 39.2927 33.1538 39.0515L37.418 36.7652H37.4192C37.7004 36.6146 38.0335 36.5925 38.3328 36.7064C38.6309 36.8203 38.8687 37.0579 38.9834 37.3603L39.5012 38.7318C39.751 39.3882 40.3569 39.8351 41.0496 39.8743L44.1141 40.0445H44.1128C44.2915 40.0543 44.4435 39.916 44.4532 39.736C44.4629 39.5547 44.3265 39.4004 44.1491 39.3906L41.0847 39.2204V39.2216C40.6514 39.191 40.2736 38.9081 40.1191 38.4967L39.5844 37.1276C39.4046 36.65 39.0316 36.2741 38.5598 36.0941C38.0879 35.9141 37.5616 35.9484 37.1163 36.1871L32.8546 38.4734C32.5673 38.6277 32.2282 38.6473 31.9264 38.5273C31.6235 38.4061 31.3882 38.1575 31.2808 37.8464C31.1094 37.3529 30.734 36.9611 30.2537 36.7725C29.7721 36.5839 29.2338 36.6182 28.78 36.8668L27.4922 37.5782H27.4934C25.1363 38.8799 22.4967 39.5632 19.8139 39.5645H19.0764C18.899 39.5645 18.7554 39.7102 18.7554 39.8902C18.7554 40.0714 18.899 40.2172 19.0764 40.2172H19.8102C22.5994 40.2208 25.3451 39.518 27.7987 38.1735ZM34.2136 22.521C33.6994 21.9993 32.9934 21.7189 32.2656 21.747C31.539 21.7752 30.8559 22.1108 30.3828 22.6716L23.2835 31.1029C23.1229 31.2939 23.0059 31.5167 22.9383 31.7568C23.9702 32.0825 24.7764 32.9029 25.0951 33.9512C25.3316 33.8826 25.5513 33.7638 25.7384 33.6009L34.0615 26.4177C34.6131 25.9364 34.9438 25.2445 34.9715 24.5073C35.0005 23.7701 34.7253 23.055 34.2136 22.5309V22.521Z" fill="white"/>
</svg>
