<svg width="58" height="60" viewBox="0 0 58 60" fill="none" xmlns="http://www.w3.org/2000/svg">
<path d="M54.5563 18.2445V24.4514H51.1125V0H6.8875V24.4514H3.44375V18.2445C1.45 18.2445 0 19.9373 0 21.8182V60H3.44375V28.0251H6.8875V40.2508H51.1125V28.0251H54.5563V60H58V21.8182C58 19.7492 56.3688 18.2445 54.5563 18.2445ZM47.4875 36.489H10.5125V3.57367H47.4875C47.4875 4.13793 47.4875 37.2414 47.4875 36.489Z" fill="white"/>
<path d="M45.6751 5.45459H12.3251V34.6082H45.6751V5.45459ZM15.9501 10.533H22.6564V18.6207H15.9501V10.533ZM25.9189 29.3417H15.7689V22.3825H25.9189V29.3417ZM34.4376 29.3417H27.7314V21.254H34.4376V29.3417ZM34.8001 17.6803H24.6501V10.9091H34.8001V17.6803ZM42.2314 29.3417H36.4314V10.9091H42.2314V29.3417Z" fill="white"/>
<path d="M19.0312 13.1656C19.3315 13.1656 19.5749 12.913 19.5749 12.6014C19.5749 12.2897 19.3315 12.0371 19.0312 12.0371C18.7309 12.0371 18.4874 12.2897 18.4874 12.6014C18.4874 12.913 18.7309 13.1656 19.0312 13.1656Z" fill="white"/>
<path d="M20.8437 24.4514C21.2062 24.4514 21.3874 24.0752 21.3874 23.699C21.3874 23.3229 21.0249 23.1348 20.8437 23.1348C20.4812 23.1348 20.2999 23.5109 20.2999 23.699C20.1187 24.0752 20.4812 24.4514 20.8437 24.4514Z" fill="white"/>
<path d="M29.7253 12.9781C30.0878 12.9781 30.269 12.602 30.269 12.4139C30.269 12.0377 29.9065 11.8496 29.7253 11.8496C29.3628 11.8496 29.1815 12.0377 29.1815 12.4139C29.1815 12.602 29.544 12.9781 29.7253 12.9781Z" fill="white"/>
<path d="M30.9938 23.5109C31.3563 23.5109 31.5376 23.3228 31.5376 22.9466C31.5376 22.5704 31.1751 22.3823 30.9938 22.3823C30.6313 22.3823 30.4501 22.7585 30.4501 22.9466C30.4501 23.1347 30.6313 23.5109 30.9938 23.5109Z" fill="white"/>
<path d="M39.3311 13.1656C39.6314 13.1656 39.8749 12.913 39.8749 12.6014C39.8749 12.2897 39.6314 12.0371 39.3311 12.0371C39.0308 12.0371 38.7874 12.2897 38.7874 12.6014C38.7874 12.913 39.0308 13.1656 39.3311 13.1656Z" fill="white"/>
</svg>
