<svg width="53" height="57" viewBox="0 0 53 57" fill="none" xmlns="http://www.w3.org/2000/svg">
<path fill-rule="evenodd" clip-rule="evenodd" d="M7 2.25C7 1.52513 7.59695 0.9375 8.33333 0.9375H51C51.7364 0.9375 52.3333 1.52513 52.3333 2.25V54.75C52.3333 55.4749 51.7364 56.0625 51 56.0625H8.33333C7.59695 56.0625 7 55.4749 7 54.75V2.25ZM9.66667 3.5625V53.4375H49.6667V3.5625H9.66667Z" fill="white"/>
<path fill-rule="evenodd" clip-rule="evenodd" d="M0.333344 11.4375H8.33334V14.0625H0.333344V11.4375Z" fill="white"/>
<path fill-rule="evenodd" clip-rule="evenodd" d="M0.333344 27.1875H8.33334V29.8125H0.333344V27.1875Z" fill="white"/>
<path fill-rule="evenodd" clip-rule="evenodd" d="M0.333344 42.9375H8.33334V45.5625H0.333344V42.9375Z" fill="white"/>
<path fill-rule="evenodd" clip-rule="evenodd" d="M16.3333 12.75C16.3333 12.0251 16.9303 11.4375 17.6667 11.4375H41.6667C42.4031 11.4375 43 12.0251 43 12.75V23.25C43 23.9749 42.4031 24.5625 41.6667 24.5625H17.6667C16.9303 24.5625 16.3333 23.9749 16.3333 23.25V12.75ZM19 14.0625V21.9375H40.3333V14.0625H19Z" fill="white"/>
</svg>
